<svg width="47" height="47" viewBox="0 0 47 47" fill="none" xmlns="http://www.w3.org/2000/svg">
<path d="M23.5 2C26.3234 2 29.1192 2.55611 31.7277 3.63659C34.3362 4.71707 36.7063 6.30074 38.7028 8.2972C40.6993 10.2937 42.2829 12.6638 43.3634 15.2723C44.4439 17.8808 45 20.6766 45 23.5C45 26.3234 44.4439 29.1192 43.3634 31.7277C42.2829 34.3362 40.6993 36.7063 38.7028 38.7028C36.7063 40.6993 34.3362 42.2829 31.7277 43.3634C29.1192 44.4439 26.3234 45 23.5 45C17.7978 45 12.3292 42.7348 8.2972 38.7028C4.26517 34.6708 2 29.2022 2 23.5C2 17.7978 4.26517 12.3292 8.2972 8.2972C12.3292 4.26517 17.7978 2 23.5 2Z" fill="white" stroke="#09B5FF" stroke-opacity="0.8" stroke-width="4" stroke-linecap="round"/>
<path d="M13.9443 33.0555C15.1388 30.6667 18.2204 28.2778 23.4999 28.2778C28.7793 28.2778 31.861 30.6667 33.0554 33.0555" fill="white"/>
<path d="M13.9443 33.0555C15.1388 30.6667 18.2204 28.2778 23.4999 28.2778C28.7793 28.2778 31.861 30.6667 33.0554 33.0555" stroke="#09B5FF" stroke-opacity="0.8" stroke-width="2" stroke-linecap="round"/>
<path d="M16.3332 21.1111C17.6526 21.1111 18.7221 19.5068 18.7221 17.5278C18.7221 15.5487 17.6526 13.9444 16.3332 13.9444C15.0139 13.9444 13.9443 15.5487 13.9443 17.5278C13.9443 19.5068 15.0139 21.1111 16.3332 21.1111Z" fill="#09B5FF" fill-opacity="0.8"/>
<path d="M30.6665 21.1111C31.9858 21.1111 33.0554 19.5068 33.0554 17.5278C33.0554 15.5487 31.9858 13.9444 30.6665 13.9444C29.3471 13.9444 28.2776 15.5487 28.2776 17.5278C28.2776 19.5068 29.3471 21.1111 30.6665 21.1111Z" fill="#09B5FF" fill-opacity="0.8"/>
</svg>
