<svg width="170" height="28" viewBox="0 0 170 28" fill="none" xmlns="http://www.w3.org/2000/svg">
<path d="M14.918 16.3164C14.7852 18.1523 14.1055 19.5977 12.8789 20.6523C11.6602 21.707 10.0508 22.2344 8.05078 22.2344C5.86328 22.2344 4.14062 21.5 2.88281 20.0312C1.63281 18.5547 1.00781 16.5312 1.00781 13.9609V12.918C1.00781 11.2773 1.29688 9.83203 1.875 8.58203C2.45312 7.33203 3.27734 6.375 4.34766 5.71094C5.42578 5.03906 6.67578 4.70312 8.09766 4.70312C10.0664 4.70312 11.6523 5.23047 12.8555 6.28516C14.0586 7.33984 14.7539 8.82031 14.9414 10.7266H11.4258C11.3398 9.625 11.0312 8.82812 10.5 8.33594C9.97656 7.83594 9.17578 7.58594 8.09766 7.58594C6.92578 7.58594 6.04688 8.00781 5.46094 8.85156C4.88281 9.6875 4.58594 10.9883 4.57031 12.7539V14.043C4.57031 15.8867 4.84766 17.2344 5.40234 18.0859C5.96484 18.9375 6.84766 19.3633 8.05078 19.3633C9.13672 19.3633 9.94531 19.1172 10.4766 18.625C11.0156 18.125 11.3242 17.3555 11.4023 16.3164H14.918ZM20.0766 15.543C20.0766 14.2852 20.3188 13.1641 20.8031 12.1797C21.2875 11.1953 21.9828 10.4336 22.8891 9.89453C23.8031 9.35547 24.8617 9.08594 26.0648 9.08594C27.7758 9.08594 29.1703 9.60938 30.2484 10.6562C31.3344 11.7031 31.9398 13.125 32.0648 14.9219L32.0883 15.7891C32.0883 17.7344 31.5453 19.2969 30.4594 20.4766C29.3734 21.6484 27.9164 22.2344 26.0883 22.2344C24.2602 22.2344 22.7992 21.6484 21.7055 20.4766C20.6195 19.3047 20.0766 17.7109 20.0766 15.6953V15.543ZM23.4633 15.7891C23.4633 16.9922 23.6898 17.9141 24.143 18.5547C24.5961 19.1875 25.2445 19.5039 26.0883 19.5039C26.9086 19.5039 27.5492 19.1914 28.0102 18.5664C28.4711 17.9336 28.7016 16.9258 28.7016 15.543C28.7016 14.3633 28.4711 13.4492 28.0102 12.8008C27.5492 12.1523 26.9008 11.8281 26.0648 11.8281C25.2367 11.8281 24.5961 12.1523 24.143 12.8008C23.6898 13.4414 23.4633 14.4375 23.4633 15.7891ZM44.8992 12.4961C44.4383 12.4336 44.032 12.4023 43.6805 12.4023C42.3992 12.4023 41.5594 12.8359 41.1609 13.7031V22H37.7742V9.32031H40.9734L41.0672 10.832C41.7469 9.66797 42.6883 9.08594 43.8914 9.08594C44.2664 9.08594 44.618 9.13672 44.9461 9.23828L44.8992 12.4961ZM49.1906 15.543C49.1906 14.2852 49.4328 13.1641 49.9172 12.1797C50.4016 11.1953 51.0969 10.4336 52.0031 9.89453C52.9172 9.35547 53.9758 9.08594 55.1789 9.08594C56.8898 9.08594 58.2844 9.60938 59.3625 10.6562C60.4484 11.7031 61.0539 13.125 61.1789 14.9219L61.2023 15.7891C61.2023 17.7344 60.6594 19.2969 59.5734 20.4766C58.4875 21.6484 57.0305 22.2344 55.2023 22.2344C53.3742 22.2344 51.9133 21.6484 50.8195 20.4766C49.7336 19.3047 49.1906 17.7109 49.1906 15.6953V15.543ZM52.5773 15.7891C52.5773 16.9922 52.8039 17.9141 53.257 18.5547C53.7102 19.1875 54.3586 19.5039 55.2023 19.5039C56.0227 19.5039 56.6633 19.1914 57.1242 18.5664C57.5852 17.9336 57.8156 16.9258 57.8156 15.543C57.8156 14.3633 57.5852 13.4492 57.1242 12.8008C56.6633 12.1523 56.0148 11.8281 55.1789 11.8281C54.3508 11.8281 53.7102 12.1523 53.257 12.8008C52.8039 13.4414 52.5773 14.4375 52.5773 15.7891ZM70.0055 9.32031L70.1109 10.7852C71.0172 9.65234 72.232 9.08594 73.7555 9.08594C75.0992 9.08594 76.0992 9.48047 76.7555 10.2695C77.4117 11.0586 77.7477 12.2383 77.7633 13.8086V22H74.3766V13.8906C74.3766 13.1719 74.2203 12.6523 73.9078 12.332C73.5953 12.0039 73.0758 11.8398 72.3492 11.8398C71.3961 11.8398 70.6813 12.2461 70.2047 13.0586V22H66.818V9.32031H70.0055ZM91.2891 22C91.1328 21.6953 91.0195 21.3164 90.9492 20.8633C90.1289 21.7773 89.0625 22.2344 87.75 22.2344C86.5078 22.2344 85.4766 21.875 84.6562 21.1562C83.8438 20.4375 83.4375 19.5312 83.4375 18.4375C83.4375 17.0938 83.9336 16.0625 84.9258 15.3438C85.9258 14.625 87.3672 14.2617 89.25 14.2539H90.8086V13.5273C90.8086 12.9414 90.6562 12.4727 90.3516 12.1211C90.0547 11.7695 89.582 11.5938 88.9336 11.5938C88.3633 11.5938 87.9141 11.7305 87.5859 12.0039C87.2656 12.2773 87.1055 12.6523 87.1055 13.1289H83.7188C83.7188 12.3945 83.9453 11.7148 84.3984 11.0898C84.8516 10.4648 85.4922 9.97656 86.3203 9.625C87.1484 9.26562 88.0781 9.08594 89.1094 9.08594C90.6719 9.08594 91.9102 9.48047 92.8242 10.2695C93.7461 11.0508 94.207 12.1523 94.207 13.5742V19.0703C94.2148 20.2734 94.3828 21.1836 94.7109 21.8008V22H91.2891ZM88.4883 19.6445C88.9883 19.6445 89.4492 19.5352 89.8711 19.3164C90.293 19.0898 90.6055 18.7891 90.8086 18.4141V16.2344H89.543C87.8477 16.2344 86.9453 16.8203 86.8359 17.9922L86.8242 18.1914C86.8242 18.6133 86.9727 18.9609 87.2695 19.2344C87.5664 19.5078 87.9727 19.6445 88.4883 19.6445Z" fill="#3F414E"/>
<path d="M106.854 18.2852L111.19 4.9375H114.448L108.307 22H105.436L99.3187 4.9375H102.565L106.854 18.2852ZM122.735 22H119.887V9.32031H122.735V22ZM119.712 6.02734C119.712 5.58984 119.848 5.22656 120.122 4.9375C120.403 4.64844 120.802 4.50391 121.317 4.50391C121.833 4.50391 122.231 4.64844 122.512 4.9375C122.794 5.22656 122.934 5.58984 122.934 6.02734C122.934 6.45703 122.794 6.81641 122.512 7.10547C122.231 7.38672 121.833 7.52734 121.317 7.52734C120.802 7.52734 120.403 7.38672 120.122 7.10547C119.848 6.81641 119.712 6.45703 119.712 6.02734ZM136.085 11.9219C135.71 11.8594 135.323 11.8281 134.925 11.8281C133.62 11.8281 132.741 12.3281 132.288 13.3281V22H129.441V9.32031H132.159L132.23 10.7383C132.917 9.63672 133.87 9.08594 135.089 9.08594C135.495 9.08594 135.831 9.14062 136.097 9.25L136.085 11.9219ZM149.166 20.7578C148.33 21.7422 147.142 22.2344 145.603 22.2344C144.228 22.2344 143.185 21.832 142.474 21.0273C141.771 20.2227 141.42 19.0586 141.42 17.5352V9.32031H144.267V17.5C144.267 19.1094 144.935 19.9141 146.271 19.9141C147.654 19.9141 148.587 19.418 149.072 18.4258V9.32031H151.92V22H149.236L149.166 20.7578ZM165.527 18.5547C165.527 18.0469 165.316 17.6602 164.895 17.3945C164.48 17.1289 163.789 16.8945 162.82 16.6914C161.852 16.4883 161.043 16.2305 160.395 15.918C158.973 15.2305 158.262 14.2344 158.262 12.9297C158.262 11.8359 158.723 10.9219 159.645 10.1875C160.566 9.45312 161.738 9.08594 163.16 9.08594C164.676 9.08594 165.898 9.46094 166.828 10.2109C167.766 10.9609 168.234 11.9336 168.234 13.1289H165.387C165.387 12.582 165.184 12.1289 164.777 11.7695C164.371 11.4023 163.832 11.2188 163.16 11.2188C162.535 11.2188 162.023 11.3633 161.625 11.6523C161.234 11.9414 161.039 12.3281 161.039 12.8125C161.039 13.25 161.223 13.5898 161.59 13.832C161.957 14.0742 162.699 14.3203 163.816 14.5703C164.934 14.8125 165.809 15.1055 166.441 15.4492C167.082 15.7852 167.555 16.1914 167.859 16.668C168.172 17.1445 168.328 17.7227 168.328 18.4023C168.328 19.543 167.855 20.4688 166.91 21.1797C165.965 21.8828 164.727 22.2344 163.195 22.2344C162.156 22.2344 161.23 22.0469 160.418 21.6719C159.605 21.2969 158.973 20.7812 158.52 20.125C158.066 19.4688 157.84 18.7617 157.84 18.0039H160.605C160.645 18.6758 160.898 19.1953 161.367 19.5625C161.836 19.9219 162.457 20.1016 163.23 20.1016C163.98 20.1016 164.551 19.9609 164.941 19.6797C165.332 19.3906 165.527 19.0156 165.527 18.5547Z" fill="#00BFA6"/>
</svg>
