<svg width="47" height="47" viewBox="0 0 47 47" fill="none" xmlns="http://www.w3.org/2000/svg">
<path d="M23.5 0C36.479 0 47 10.5209 47 23.5C47 25.2084 46.819 26.8722 46.4712 28.4773L42.2835 24.2872C42.456 20.1624 41.2658 16.0955 38.8969 12.7144C36.5279 9.33323 33.1119 6.82589 29.1761 5.57942C25.2403 4.33295 21.0037 4.41666 17.1202 5.81763C13.2368 7.2186 9.92244 9.85893 7.6889 13.331C5.45535 16.8031 4.4268 20.9138 4.76203 25.0286C5.09726 29.1434 6.77763 33.0335 9.54373 36.0982C12.3098 39.163 16.0078 41.232 20.0668 41.9859C24.1259 42.7398 28.3202 42.1367 32.0023 40.2696C32.8992 41.6912 34.1612 42.846 35.6566 43.6136C31.991 45.8345 27.7859 47.0059 23.5 47C10.521 47 0 36.479 0 23.5C0 10.5209 10.521 0 23.5 0ZM39.95 28.6042L43.2729 31.9271C43.9198 32.5737 44.3639 33.395 44.5508 34.2903C44.7378 35.1856 44.6595 36.1161 44.3255 36.9675C43.9914 37.819 43.4162 38.5545 42.6704 39.0838C41.9245 39.6132 41.0404 39.9135 40.1264 39.9478C39.2124 39.9821 38.3083 39.749 37.5248 39.277C36.7414 38.805 36.1127 38.1148 35.7157 37.2907C35.3188 36.4667 35.1709 35.5448 35.2902 34.638C35.4095 33.7312 35.7908 32.8789 36.3874 32.1856L36.6271 31.9271L39.95 28.6042ZM23.5 30.55C26.9451 30.55 30.0447 32.0328 32.195 34.3969L29.9742 36.4179C28.1178 35.6777 25.8923 35.25 23.5 35.25C21.1077 35.25 18.8822 35.68 17.0257 36.4156L14.805 34.3946C15.9053 33.1819 17.2475 32.2132 18.7451 31.551C20.2428 30.8888 21.8625 30.5478 23.5 30.55ZM15.275 18.8C16.2099 18.8 17.1065 19.1714 17.7675 19.8324C18.4286 20.4935 18.8 21.3901 18.8 22.325C18.8 23.2599 18.4286 24.1565 17.7675 24.8175C17.1065 25.4786 16.2099 25.85 15.275 25.85C14.3401 25.85 13.4435 25.4786 12.7824 24.8175C12.1214 24.1565 11.75 23.2599 11.75 22.325C11.75 21.3901 12.1214 20.4935 12.7824 19.8324C13.4435 19.1714 14.3401 18.8 15.275 18.8ZM31.725 18.8C32.6599 18.8 33.5565 19.1714 34.2175 19.8324C34.8786 20.4935 35.25 21.3901 35.25 22.325C35.25 23.2599 34.8786 24.1565 34.2175 24.8175C33.5565 25.4786 32.6599 25.85 31.725 25.85C30.7901 25.85 29.8935 25.4786 29.2324 24.8175C28.5714 24.1565 28.2 23.2599 28.2 22.325C28.2 21.3901 28.5714 20.4935 29.2324 19.8324C29.8935 19.1714 30.7901 18.8 31.725 18.8Z" fill="#FF464F" fill-opacity="0.8"/>
</svg>
