<svg width="167" height="256" viewBox="0 0 167 256" fill="none" xmlns="http://www.w3.org/2000/svg">
<g clip-path="url(#clip0_2_237)">
<path opacity="0.2" d="M166.08 98.2494L163.548 98.2408L153.836 98.2116L151.679 98.2073L145.137 98.1906L143.521 98.182H142.803L109.068 98.0897L108.532 98.0854H108.021L105.97 98.0772L100.18 98.0644L97.3856 98.0562L91.5866 98.0395V14.4378L163.125 8.14904L165.658 7.92624L166.08 98.2494Z" fill="black"/>
<path d="M163.548 98.241V98.2494L156.457 98.2284L153.836 98.22L151.679 98.2158L148.581 98.2074L147.345 98.2032L145.142 98.199L143.998 98.1948H143.521L142.816 98.1906H142.803L137.481 98.178L136.519 98.1738L122.874 98.136L120.422 98.1276L110.415 98.0982L109.068 98.094H108.528C108.53 98.0918 108.532 98.0888 108.532 98.0856H108.022L105.97 98.0772L100.18 98.0646V98.0688L97.3857 98.0604L95.4653 98.0562H95.0348L89.0543 98.0394V14.4379L163.125 7.92627V8.14891L163.548 98.241Z" fill="#E6E6E6"/>
<path opacity="0.2" d="M126.195 6.45609C127.827 6.45609 129.15 5.13947 129.15 3.51534C129.15 1.8912 127.827 0.574585 126.195 0.574585C124.564 0.574585 123.241 1.8912 123.241 3.51534C123.241 5.13947 124.564 6.45609 126.195 6.45609Z" fill="black"/>
<path d="M124.507 6.45609C126.139 6.45609 127.462 5.13947 127.462 3.51534C127.462 1.8912 126.139 0.574585 124.507 0.574585C122.875 0.574585 121.553 1.8912 121.553 3.51534C121.553 5.13947 122.875 6.45609 124.507 6.45609Z" fill="#3F3D56"/>
<path opacity="0.2" d="M149.2 -1.66611e-06L102.921 3.68045L103.19 7.03064L149.469 3.35019L149.2 -1.66611e-06Z" fill="black"/>
<path d="M147.512 -1.49222e-06L101.233 3.68045L101.502 7.03064L147.781 3.35019L147.512 -1.49222e-06Z" fill="#E6E6E6"/>
<path opacity="0.56" d="M151.861 79.5936C149.38 70.2336 148.059 69.511 148.059 69.511L134.063 62.4994L133.97 62.4658L126.103 68.2423L122.714 63.0497L122.545 62.9027C122.545 62.9027 122.473 62.9321 122.334 62.9867C121.119 63.474 114.86 66.0493 110.213 69.1119L110.069 69.0909L104.587 71.8048L103.603 75.4219L102.468 79.5936L98.5596 97.6666V97.6708L101.354 97.6792V97.675L107.144 97.6876L108.056 93.2345L109.195 97.696H109.706C109.706 97.6992 109.704 97.7022 109.702 97.7044H110.242L111.589 97.7086L121.596 97.738L124.048 97.7464L137.693 97.7843L138.655 97.7884L143.977 97.801H143.99L144.695 97.8052V97.7926L145.058 93.8562L145.277 92.7555L146.311 97.801L146.315 97.8095L148.519 97.8137L149.755 97.8178L152.853 97.8262L155.01 97.8304V97.822C154.415 93.8184 152.773 83.0384 151.861 79.5936Z" fill="#00BFA6"/>
<path opacity="0.56" d="M139.714 51.8482L139.719 51.867C139.713 51.8681 139.711 51.8617 139.714 51.8482C139.658 51.6563 138.951 49.3912 136.928 50.5568C134.816 51.7733 132.292 44.1358 132.292 44.1358C132.292 44.1358 125.936 45.8775 122.055 45.6107C121.792 45.5919 121.534 45.53 121.291 45.4276C120.402 47.2588 120.105 49.3186 120.439 51.3248C120.772 53.3309 121.721 55.1852 123.156 56.6335L122.47 62.712L125.992 68.1652L133.819 62.3225C133.819 62.3225 133.918 63.8095 134.239 58.7163C135.755 58.0423 137.077 56.9999 138.082 55.6848C139.088 54.3698 139.746 52.8243 139.995 51.1902C139.837 51.5495 139.726 51.7831 139.714 51.8482Z" fill="#FFB8B8"/>
<path opacity="0.56" d="M139.995 51.5797C140.86 49.622 143.177 43.8595 139.108 40.3873C135.741 37.5147 123.865 34.951 120.069 42.5777C119.925 42.8685 119.842 43.1857 119.826 43.5095C119.81 43.8334 119.861 44.1571 119.975 44.4607C120.09 44.7643 120.266 45.0413 120.492 45.2746C120.718 45.5079 120.99 45.6925 121.291 45.8171C121.346 45.7044 121.408 45.5959 121.467 45.4856C121.657 45.5524 121.855 45.5944 122.055 45.6107C125.936 45.8775 132.292 44.1358 132.292 44.1358C132.292 44.1358 134.816 51.7733 136.928 50.5568C138.951 49.3912 139.658 51.6563 139.714 51.8482C139.726 51.7831 139.837 51.5495 139.995 51.1902C140.059 50.7545 140.094 50.315 140.1 49.8747C140.101 49.9521 140.105 50.029 140.105 50.1069C140.106 50.5999 140.069 51.0922 139.995 51.5797Z" fill="#2F2E41"/>
<path d="M64.9969 256C100.894 256 129.994 251.486 129.994 245.917C129.994 240.349 100.894 235.835 64.9969 235.835C29.1001 235.835 0 240.349 0 245.917C0 251.486 29.1001 256 64.9969 256Z" fill="#E6E6E6"/>
<path d="M165.236 225.542L151.097 241.834L150.835 242.136L67.9514 229.533V135.429H165.025L165.236 225.542Z" fill="#3F3D56"/>
<path d="M76.213 170.929L76.1499 171.767L93.0322 173.028L93.0954 172.19L76.213 170.929Z" fill="#E6E6E6"/>
<path d="M117.573 174.71L117.513 175.548L135.24 176.808L135.3 175.971L117.573 174.71Z" fill="#E6E6E6"/>
<path d="M150.911 161.687L67.7659 156.645L67.7147 157.484L105.727 159.789L106.374 235.443L107.218 235.436L106.572 159.84L150.86 162.525L150.911 161.687Z" fill="#E6E6E6"/>
<path opacity="0.2" d="M165.236 225.542L151.097 241.834V135.429H165.025L165.236 225.542Z" fill="black"/>
<path d="M73.6492 137.32H66.0521V132.278L86.3109 128.497L87.5771 125.977L166.924 128.077V135.219L151.097 140.97L140.756 140.68C140.756 140.68 125.14 153.704 106.57 152.443C87.9991 151.183 73.6492 137.32 73.6492 137.32Z" fill="#E6E6E6"/>
<path d="M142.656 132.488L138.224 135.639L125.811 135.341C125.811 135.345 125.807 135.341 125.807 135.341H125.786L124.841 135.32H124.836L124.051 135.299L121.574 135.24L121.367 135.236L119.177 135.185L119.096 135.181L116.374 135.118L116.197 135.114L114.184 135.064L113.859 135.059L111.495 135.001L110.735 134.984L106.485 134.883L105.413 134.858L94.119 134.589C94.119 134.589 86.0703 134.988 85.6905 132.661C85.6819 132.604 85.6777 132.546 85.6778 132.488C85.6778 131.165 87.079 130.884 88.4043 130.917C89.1919 130.946 89.9749 131.05 90.7425 131.228L93.9839 131.308L96.0056 131.354L102.349 131.509L107.773 131.64L109.693 131.69L112.44 131.757L113.529 131.783L117.573 131.879L119.464 131.925L123.456 132.022L142.656 132.488Z" fill="#CCCCCC"/>
<path d="M119.02 134.589C119.487 134.589 119.865 134.213 119.865 133.749C119.865 133.285 119.487 132.908 119.02 132.908C118.554 132.908 118.176 133.285 118.176 133.749C118.176 134.213 118.554 134.589 119.02 134.589Z" fill="#3F3D56"/>
<path d="M119.442 131.648C123.871 131.648 127.462 131.272 127.462 130.808C127.462 130.344 123.871 129.968 119.442 129.968C115.014 129.968 111.423 130.344 111.423 130.808C111.423 131.272 115.014 131.648 119.442 131.648Z" fill="#CCCCCC"/>
<path d="M114.424 120.129L121.421 121.827L120.622 125.092L110.583 122.657L110.641 122.419C110.837 121.616 111.346 120.924 112.056 120.494C112.765 120.065 113.617 119.934 114.424 120.129Z" fill="#3F3D56"/>
<path d="M111.781 122.764L115.537 123.326L115.519 123.447C115.457 123.856 115.235 124.223 114.901 124.469C114.567 124.714 114.149 124.818 113.738 124.756L113.078 124.658C112.667 124.596 112.298 124.375 112.052 124.043C111.805 123.71 111.701 123.294 111.763 122.885L111.781 122.764L111.781 122.764Z" fill="#3F3D56"/>
<path opacity="0.2" d="M120.622 124.252L115.374 122.979C115.216 123.298 114.962 123.558 114.646 123.724C114.33 123.889 113.97 123.95 113.617 123.898L113.199 123.836C112.789 123.773 112.416 123.562 112.152 123.243C111.889 122.923 111.753 122.518 111.772 122.105L110.878 121.888C110.748 122.131 110.649 122.389 110.583 122.657L111.772 122.945C111.753 123.358 111.889 123.763 112.152 124.083C112.416 124.402 112.789 124.614 113.199 124.676L113.617 124.738C113.97 124.79 114.33 124.729 114.646 124.564C114.962 124.399 115.216 124.138 115.374 123.819L120.622 125.092L121.421 121.827L121.227 121.78L120.622 124.252Z" fill="black"/>
<path d="M119.737 131.228C119.318 131.228 118.904 131.143 118.52 130.979C118.135 130.814 117.789 130.574 117.501 130.272C117.213 129.97 116.99 129.612 116.845 129.221C116.7 128.831 116.637 128.415 116.659 127.999L117.121 119.255L122.819 119.045V128.16C122.819 128.563 122.739 128.962 122.584 129.334C122.429 129.706 122.202 130.045 121.916 130.329C121.63 130.614 121.29 130.84 120.916 130.995C120.542 131.149 120.142 131.228 119.737 131.228Z" fill="#3F3D56"/>
<path d="M122.397 119.255H117.266C118.155 117.911 117.6 116.534 116.355 115.142C116.283 115.061 116.237 114.962 116.221 114.855C116.205 114.749 116.22 114.64 116.264 114.542C116.309 114.444 116.381 114.361 116.471 114.303C116.562 114.245 116.668 114.214 116.776 114.214H118.732C120.756 114.214 122.397 116.095 122.397 118.415V119.255Z" fill="#3F3D56"/>
<path opacity="0.2" d="M118.043 115.142C117.972 115.061 117.925 114.962 117.909 114.855C117.893 114.749 117.908 114.64 117.952 114.542C117.997 114.444 118.069 114.361 118.16 114.303C118.251 114.245 118.356 114.214 118.464 114.214H116.776C116.668 114.214 116.562 114.245 116.472 114.303C116.381 114.361 116.309 114.444 116.264 114.542C116.22 114.64 116.205 114.749 116.221 114.855C116.237 114.962 116.283 115.061 116.355 115.142C117.6 116.534 118.155 117.911 117.266 119.255H118.954C119.844 117.911 119.289 116.534 118.043 115.142Z" fill="black"/>
<path d="M93.6911 124.207L100.182 126.49C100.182 126.49 115.622 127.717 113.619 131.626C111.615 135.535 98.4007 133.009 98.4007 133.009L92.1423 128.684L93.6911 124.207Z" fill="#FFB8B8"/>
<path d="M103.404 129.968C102.972 129.968 102.557 130.134 102.244 130.431C101.932 130.728 101.746 131.133 101.725 131.562C101.63 131.476 101.523 131.404 101.407 131.35C101.726 131.134 101.961 130.816 102.074 130.449C102.187 130.083 102.17 129.688 102.027 129.332C101.884 128.975 101.624 128.678 101.288 128.489C100.952 128.301 100.562 128.231 100.181 128.293C99.8009 128.355 99.4531 128.545 99.1954 128.83C98.9377 129.116 98.7856 129.48 98.7642 129.863C98.7428 130.246 98.8535 130.625 99.0778 130.937C99.3022 131.25 99.6268 131.476 99.9981 131.58C99.8539 131.717 99.7443 131.886 99.6782 132.073C99.6122 132.26 99.5915 132.46 99.618 132.657C99.6444 132.853 99.7171 133.041 99.8303 133.204C99.9435 133.368 100.094 133.502 100.269 133.597C100.444 133.691 100.64 133.743 100.839 133.748C101.038 133.753 101.236 133.711 101.416 133.626C101.596 133.541 101.753 133.414 101.874 133.257C101.996 133.099 102.078 132.916 102.115 132.721C102.296 132.937 102.53 133.105 102.794 133.207C103.059 133.31 103.345 133.345 103.626 133.308C103.907 133.271 104.174 133.165 104.403 132.998C104.632 132.831 104.815 132.61 104.935 132.354C105.054 132.098 105.107 131.816 105.089 131.534C105.07 131.253 104.98 130.98 104.828 130.742C104.675 130.505 104.465 130.309 104.216 130.173C103.967 130.038 103.688 129.967 103.404 129.968Z" fill="white"/>
<path d="M106.359 130.808C105.927 130.809 105.511 130.974 105.199 131.271C104.886 131.568 104.7 131.973 104.679 132.402C104.585 132.316 104.478 132.245 104.362 132.19C104.68 131.974 104.916 131.657 105.028 131.29C105.141 130.923 105.125 130.528 104.982 130.172C104.839 129.816 104.578 129.518 104.242 129.33C103.907 129.141 103.516 129.072 103.136 129.134C102.755 129.196 102.407 129.385 102.15 129.67C101.892 129.956 101.74 130.32 101.719 130.703C101.697 131.087 101.808 131.466 102.032 131.778C102.257 132.09 102.581 132.316 102.952 132.42C102.808 132.557 102.699 132.726 102.633 132.913C102.567 133.1 102.546 133.3 102.572 133.497C102.599 133.694 102.671 133.881 102.785 134.045C102.898 134.208 103.048 134.342 103.223 134.437C103.399 134.531 103.594 134.583 103.793 134.588C103.993 134.594 104.19 134.552 104.37 134.466C104.55 134.381 104.707 134.254 104.829 134.097C104.95 133.94 105.032 133.756 105.069 133.561C105.251 133.777 105.485 133.945 105.749 134.048C106.013 134.15 106.299 134.185 106.58 134.148C106.861 134.112 107.129 134.005 107.357 133.838C107.586 133.671 107.769 133.45 107.889 133.194C108.009 132.938 108.062 132.656 108.043 132.375C108.024 132.093 107.935 131.821 107.782 131.583C107.629 131.345 107.419 131.149 107.17 131.014C106.921 130.878 106.642 130.807 106.359 130.808Z" fill="white"/>
<path d="M98.4155 124.023L92.5405 133.681L80.1868 125.426L65.9972 115.949L57.4421 93.5906L48.7435 77.7357L59.6453 74.5387C59.6453 74.5387 63.3974 74.6816 68.2468 83.5416C73.092 92.4059 77.4097 107.748 77.4097 107.748L83.2045 112.239L98.4155 124.023Z" fill="#00BFA6"/>
<path opacity="0.2" d="M98.4155 124.023L92.5405 133.681L80.1868 125.426L65.9972 115.949L57.4421 93.5906L48.7435 77.7357L59.6453 74.5387C59.6453 74.5387 63.3974 74.6816 68.2468 83.5416C73.092 92.4059 77.4097 107.748 77.4097 107.748L83.2045 112.239L98.4155 124.023Z" fill="black"/>
<path d="M125.786 135.341L110.735 134.984L109.541 133.635L108.697 132.682L107.773 131.64L106.747 130.484L108.494 127.787L109.326 126.502L112.694 128.703L115.083 130.262C115.083 130.262 117.083 130.926 119.464 131.925C121.675 132.858 124.22 134.085 125.786 135.341Z" fill="#FFB8B8"/>
<path d="M67.5342 58.3689C73.2339 58.3689 77.8544 53.7697 77.8544 48.0963C77.8544 42.4229 73.2339 37.8238 67.5342 37.8238C61.8345 37.8238 57.214 42.4229 57.214 48.0963C57.214 53.7697 61.8345 58.3689 67.5342 58.3689Z" fill="#FFB8B8"/>
<path d="M59.536 50.9213L58.504 65.8165L71.4043 67.3573C71.4043 67.3573 71.4043 55.0303 72.4363 53.4894C73.4683 51.9485 59.536 50.9213 59.536 50.9213Z" fill="#FFB8B8"/>
<path d="M88.1747 70.1823L71.4648 63.1387C71.4648 63.1387 63.4826 57.008 58.8002 61.5406L56.6979 64.5324C56.6979 64.5324 43.894 71.3843 43.894 77.0342L45.3457 105.623C45.3457 105.623 41.2176 121.545 47.4097 122.572L80.9505 125.654C80.9505 125.654 85.5946 120.004 81.4665 112.813L83.0146 95.8637L88.1747 70.1823Z" fill="#00BFA6"/>
<path d="M76.8224 70.6959L88.1747 70.1823C88.1747 70.1823 89.0065 71.0562 91.5866 80.8151C94.1667 90.574 97.4629 106.65 97.4629 106.65L113.956 127.447L105.937 135.429L84.4116 111.903L81.4665 88.1593L76.8224 70.6959Z" fill="#00BFA6"/>
<path d="M82.4985 124.627L45.3989 121.378C45.3989 121.378 41.7336 144.658 42.2496 153.904C42.7656 163.149 43.2816 177.53 43.2816 177.53L39.1535 240.193L55.1499 238.139L57.2139 186.262L63.9221 158.013L71.6623 193.967L76.8224 240.193L90.7547 238.652L86.1106 182.667C86.1106 182.667 90.2387 132.331 82.4985 124.627Z" fill="#2F2E41"/>
<path d="M87.6587 236.084L92.3028 237.625C92.3028 237.625 102.107 235.057 99.527 241.734C96.9469 248.411 89.7227 247.384 89.7227 247.384C89.7227 247.384 80.9505 254.061 77.3384 248.925L79.4025 238.139L87.6587 236.084Z" fill="#2F2E41"/>
<path d="M49.9898 236.084L54.6339 237.625C54.6339 237.625 64.4381 235.057 61.8581 241.734C59.278 248.411 52.0538 247.384 52.0538 247.384C52.0538 247.384 43.2816 254.061 39.6695 248.925L41.7336 238.139L49.9898 236.084Z" fill="#2F2E41"/>
<path d="M59.536 57.0848C59.536 57.0848 48.6997 49.3804 54.3759 40.1351C58.3136 33.7212 66.4733 34.2289 71.1019 35.1415C72.3489 35.3706 73.5212 35.8981 74.5177 36.6785C75.5143 37.459 76.3053 38.469 76.8224 39.6215C77.5964 41.4192 77.5964 43.2169 74.5003 43.2169C68.3082 43.2169 71.4043 47.8395 71.4043 47.8395C71.4043 47.8395 67.2761 48.8668 68.3082 52.4621C69.3402 56.0575 59.536 57.0848 59.536 57.0848Z" fill="#2F2E41"/>
<path d="M125.351 135.429C126.051 135.429 126.617 134.865 126.617 134.169C126.617 133.473 126.051 132.908 125.351 132.908C124.652 132.908 124.085 133.473 124.085 134.169C124.085 134.865 124.652 135.429 125.351 135.429Z" fill="white"/>
<path d="M124.085 133.329C124.086 133.078 124.029 132.83 123.921 132.604C123.812 132.378 123.653 132.179 123.456 132.022C123.156 131.781 122.782 131.649 122.397 131.648C122.376 131.648 122.359 131.652 122.338 131.652C122.253 131.316 122.064 131.014 121.799 130.788C121.534 130.563 121.205 130.425 120.858 130.394C120.51 130.364 120.162 130.441 119.861 130.616C119.559 130.791 119.32 131.055 119.177 131.371C118.909 131.231 118.6 131.192 118.306 131.262C118.012 131.331 117.753 131.504 117.577 131.749C116.334 131.591 115.117 131.275 113.956 130.808C113.639 130.808 113.328 130.897 113.06 131.065C112.792 131.233 112.577 131.473 112.44 131.757C112.325 131.984 112.266 132.234 112.267 132.488C112.269 132.791 112.354 133.087 112.512 133.345C112.211 133.387 111.935 133.536 111.735 133.765C111.535 133.993 111.424 134.286 111.423 134.589C111.423 134.729 111.447 134.869 111.495 135.001L113.859 135.059C113.891 134.982 113.915 134.902 113.93 134.82C114.006 134.909 114.091 134.991 114.184 135.064L116.197 135.114L116.311 135.026C116.329 135.058 116.351 135.089 116.374 135.118L119.096 135.181C119.113 135.163 119.129 135.143 119.143 135.122C119.152 135.144 119.164 135.165 119.177 135.185L121.367 135.236C121.455 135.092 121.512 134.932 121.536 134.765C121.548 134.774 121.56 134.781 121.574 134.786C121.561 134.86 121.553 134.934 121.553 135.009C121.553 135.086 121.56 135.164 121.574 135.24L124.051 135.299C124.073 135.204 124.085 135.107 124.085 135.009C124.083 134.729 123.988 134.457 123.815 134.236C123.991 133.966 124.085 133.651 124.085 133.329ZM119.565 133.295C119.492 133.383 119.409 133.46 119.316 133.526C119.341 133.589 119.354 133.656 119.375 133.719C119.481 133.606 119.609 133.515 119.751 133.45C119.685 133.403 119.623 133.351 119.565 133.295V133.295Z" fill="white"/>
<path d="M136.747 135.849C137.446 135.849 138.013 135.285 138.013 134.589C138.013 133.893 137.446 133.329 136.747 133.329C136.048 133.329 135.481 133.893 135.481 134.589C135.481 135.285 136.048 135.849 136.747 135.849Z" fill="white"/>
<path d="M135.481 133.749C135.481 133.498 135.425 133.25 135.316 133.024C135.207 132.798 135.049 132.599 134.852 132.442C134.552 132.201 134.178 132.069 133.792 132.068C133.771 132.068 133.754 132.072 133.733 132.072C133.648 131.736 133.46 131.434 133.195 131.209C132.93 130.983 132.6 130.846 132.253 130.815C131.906 130.784 131.557 130.861 131.256 131.036C130.955 131.211 130.716 131.475 130.572 131.791C130.305 131.651 129.995 131.612 129.701 131.682C129.407 131.751 129.148 131.924 128.973 132.169C127.73 132.011 126.513 131.695 125.351 131.228C125.034 131.228 124.724 131.317 124.456 131.485C124.188 131.653 123.973 131.893 123.836 132.177C123.721 132.404 123.662 132.655 123.663 132.908C123.664 133.211 123.749 133.507 123.908 133.765C123.606 133.808 123.33 133.956 123.13 134.185C122.93 134.413 122.82 134.706 122.819 135.009C122.819 135.149 122.843 135.289 122.891 135.421L125.254 135.48C125.287 135.403 125.311 135.322 125.326 135.24C125.402 135.33 125.487 135.411 125.579 135.484L127.592 135.534L127.706 135.446C127.725 135.478 127.746 135.509 127.77 135.538L130.492 135.601C130.509 135.583 130.524 135.563 130.538 135.543C130.548 135.564 130.559 135.585 130.572 135.606L132.763 135.656C132.85 135.512 132.908 135.352 132.931 135.185C132.943 135.194 132.956 135.201 132.969 135.206C132.956 135.28 132.949 135.354 132.948 135.429C132.949 135.507 132.956 135.584 132.969 135.66L135.447 135.719C135.469 135.624 135.48 135.527 135.481 135.429C135.479 135.149 135.384 134.877 135.211 134.656C135.387 134.386 135.48 134.071 135.481 133.749ZM130.96 133.715C130.888 133.803 130.804 133.88 130.711 133.946C130.737 134.009 130.749 134.076 130.77 134.139C130.877 134.026 131.005 133.935 131.146 133.871C131.08 133.823 131.018 133.771 130.96 133.715H130.96Z" fill="white"/>
<path d="M118.493 135.009C119.017 135.009 119.442 134.586 119.442 134.064C119.442 133.542 119.017 133.119 118.493 133.119C117.968 133.119 117.543 133.542 117.543 134.064C117.543 134.586 117.968 135.009 118.493 135.009Z" fill="white"/>
<path d="M117.543 133.434C117.544 133.245 117.501 133.06 117.42 132.89C117.338 132.72 117.219 132.571 117.072 132.454C116.846 132.273 116.566 132.174 116.277 132.173C116.261 132.173 116.249 132.176 116.233 132.176C116.169 131.924 116.028 131.698 115.829 131.529C115.63 131.359 115.383 131.256 115.123 131.233C114.862 131.21 114.601 131.268 114.375 131.399C114.149 131.53 113.97 131.728 113.862 131.965C113.661 131.86 113.429 131.831 113.209 131.883C112.988 131.936 112.794 132.065 112.662 132.249C111.73 132.131 110.817 131.893 109.946 131.543C109.709 131.543 109.476 131.61 109.275 131.736C109.073 131.862 108.912 132.042 108.81 132.255C108.723 132.425 108.679 132.613 108.68 132.803C108.681 133.03 108.745 133.253 108.864 133.446C108.637 133.478 108.43 133.589 108.28 133.761C108.13 133.932 108.047 134.152 108.047 134.379C108.047 134.484 108.065 134.589 108.101 134.688L109.873 134.732C109.898 134.674 109.916 134.614 109.927 134.552C109.984 134.619 110.048 134.681 110.117 134.735L111.627 134.773L111.712 134.707C111.726 134.731 111.742 134.754 111.76 134.776L113.802 134.823C113.814 134.809 113.826 134.794 113.836 134.779C113.844 134.795 113.852 134.811 113.862 134.826L115.505 134.864C115.571 134.756 115.614 134.636 115.631 134.511C115.64 134.518 115.65 134.523 115.66 134.527C115.65 134.582 115.645 134.638 115.644 134.694C115.644 134.752 115.65 134.81 115.66 134.867L117.518 134.911C117.534 134.84 117.543 134.767 117.543 134.694C117.542 134.484 117.471 134.28 117.341 134.114C117.473 133.912 117.543 133.675 117.543 133.434ZM114.153 133.408C114.099 133.474 114.036 133.532 113.966 133.582C113.985 133.629 113.995 133.679 114.011 133.727C114.09 133.642 114.186 133.573 114.292 133.525C114.243 133.49 114.197 133.451 114.153 133.408Z" fill="white"/>
<path d="M104.987 135.009C105.511 135.009 105.937 134.586 105.937 134.064C105.937 133.542 105.511 133.119 104.987 133.119C104.462 133.119 104.037 133.542 104.037 134.064C104.037 134.586 104.462 135.009 104.987 135.009Z" fill="white"/>
<path d="M104.037 133.434C104.038 133.245 103.996 133.06 103.914 132.89C103.832 132.72 103.713 132.571 103.566 132.454C103.341 132.273 103.06 132.174 102.771 132.173C102.755 132.173 102.743 132.176 102.727 132.176C102.663 131.924 102.522 131.698 102.323 131.529C102.124 131.359 101.877 131.256 101.617 131.233C101.356 131.21 101.095 131.268 100.869 131.399C100.643 131.53 100.464 131.728 100.356 131.965C100.155 131.86 99.9232 131.831 99.7027 131.883C99.4822 131.936 99.2881 132.065 99.1562 132.249C98.2242 132.131 97.3114 131.893 96.4403 131.543C96.2026 131.543 95.9698 131.61 95.7687 131.736C95.5676 131.862 95.4064 132.042 95.3039 132.255C95.2176 132.425 95.1731 132.613 95.1741 132.803C95.1752 133.03 95.2387 133.253 95.3577 133.446C95.1316 133.478 94.9245 133.589 94.7744 133.761C94.6244 133.932 94.5415 134.152 94.541 134.379C94.5408 134.484 94.5591 134.589 94.5948 134.688L96.3675 134.732C96.392 134.674 96.4101 134.614 96.4213 134.552C96.4782 134.619 96.5418 134.681 96.6112 134.735L98.1211 134.773L98.2066 134.707C98.2206 134.731 98.2364 134.754 98.2541 134.776L100.296 134.823C100.308 134.809 100.32 134.794 100.331 134.779C100.338 134.795 100.346 134.811 100.356 134.826L101.999 134.864C102.065 134.756 102.108 134.636 102.125 134.511C102.134 134.518 102.144 134.523 102.154 134.527C102.144 134.582 102.139 134.638 102.138 134.694C102.138 134.752 102.144 134.81 102.154 134.867L104.012 134.911C104.029 134.84 104.037 134.767 104.037 134.694C104.036 134.484 103.965 134.28 103.835 134.114C103.967 133.912 104.037 133.675 104.037 133.434ZM100.647 133.408C100.593 133.474 100.53 133.532 100.46 133.582C100.479 133.629 100.489 133.679 100.505 133.727C100.585 133.642 100.68 133.573 100.786 133.525C100.737 133.49 100.691 133.451 100.647 133.408Z" fill="white"/>
<path d="M149.303 121.33V118.809H147.193V119.23C146.96 119.23 146.771 119.512 146.771 119.86C146.771 120.208 146.96 120.49 147.193 120.49V121.33H145.505V129.732H150.991V121.33H149.303Z" fill="#3F3D56"/>
</g>
<defs>
<clipPath id="clip0_2_237">
<rect width="166.924" height="256" fill="white"/>
</clipPath>
</defs>
</svg>
