<svg width="301" height="256" viewBox="0 0 301 256" fill="none" xmlns="http://www.w3.org/2000/svg">
<g clip-path="url(#clip0_2_152)">
<path d="M40.8466 172.821C58.2577 172.821 72.3721 144.149 72.3721 108.781C72.3721 73.4119 58.2577 44.7399 40.8466 44.7399C23.4356 44.7399 9.32114 73.4119 9.32114 108.781C9.32114 144.149 23.4356 172.821 40.8466 172.821Z" fill="#00BFA6"/>
<path d="M40.5572 109.445C42.1298 81.5683 45.2982 62.7387 45.33 62.5517L44.6426 62.4358C44.6108 62.6229 41.4367 81.4827 39.8616 109.395C38.408 135.157 38.0573 174.122 44.6424 213.458L45.3302 213.344C38.7563 174.075 39.1062 135.168 40.5572 109.445Z" fill="#3F3D56"/>
<path d="M69.0232 95.7932L40.5191 110.982L40.8482 111.594L69.3522 96.4053L69.0232 95.7932Z" fill="#3F3D56"/>
<path d="M10.7573 103.406L10.4283 104.018L38.9364 119.199L39.2654 118.587L10.7573 103.406Z" fill="#3F3D56"/>
<path d="M259.447 166.164C282.035 166.164 300.346 128.967 300.346 83.0819C300.346 37.197 282.035 0 259.447 0C236.86 0 218.549 37.197 218.549 83.0819C218.549 128.967 236.86 166.164 259.447 166.164Z" fill="#00BFA6"/>
<path d="M258.951 83.933C260.991 47.7622 265.103 23.3302 265.144 23.0875L264.492 22.9776C264.451 23.2204 260.334 47.681 258.291 83.8859C256.406 117.301 255.951 167.843 264.492 218.864L265.144 218.756C256.613 167.798 257.068 117.312 258.951 83.933Z" fill="#3F3D56"/>
<path d="M296.059 66.3398L259.08 86.0447L259.392 86.6251L296.371 66.9201L296.059 66.3398Z" fill="#3F3D56"/>
<path d="M220.354 76.2159L220.042 76.7963L257.027 96.4913L257.339 95.9109L220.354 76.2159Z" fill="#3F3D56"/>
<path d="M210.171 188.666C218.61 188.666 225.452 174.768 225.452 157.624C225.452 140.48 218.61 126.583 210.171 126.583C201.732 126.583 194.89 140.48 194.89 157.624C194.89 174.768 201.732 188.666 210.171 188.666Z" fill="#E6E6E6"/>
<path d="M210.158 158.962L210.248 159.13L224.064 151.768L223.753 151.187L210.186 158.416C210.937 144.66 212.473 135.425 212.503 135.243L211.852 135.133C211.818 135.332 209.994 146.298 209.346 162.167L195.663 154.875L195.352 155.456L209.168 162.818L209.333 162.511C208.815 175.608 209.105 191.984 211.852 208.39L212.504 208.282C209.509 190.395 209.443 172.542 210.158 158.962Z" fill="#3F3D56"/>
<path d="M287.598 225.68C206.206 200.028 132.402 201.394 84.8203 207.058C33.2717 213.194 0.561518 225.549 0.237261 225.673L0 225.059C0.325226 224.934 33.1124 212.55 84.7418 206.404C115.111 202.794 145.753 202.013 176.268 204.073C214.15 206.626 251.592 213.669 287.798 225.052L287.598 225.68Z" fill="#3F3D56"/>
<path d="M104.623 218.43C104.623 218.43 104.852 213.668 109.531 214.222L104.623 218.43Z" fill="#3F3D56"/>
<path d="M103.301 213.898C104.595 213.898 105.643 212.855 105.643 211.567C105.643 210.279 104.595 209.235 103.301 209.235C102.008 209.235 100.959 210.279 100.959 211.567C100.959 212.855 102.008 213.898 103.301 213.898Z" fill="#00BFA6"/>
<path d="M103.581 215.493H102.92V220.1H103.581V215.493Z" fill="#3F3D56"/>
<path d="M189.906 219.417C189.906 219.417 190.134 214.655 194.813 215.209L189.906 219.417Z" fill="#3F3D56"/>
<path d="M188.583 214.886C189.877 214.886 190.925 213.842 190.925 212.554C190.925 211.266 189.877 210.222 188.583 210.222C187.29 210.222 186.241 211.266 186.241 212.554C186.241 213.842 187.29 214.886 188.583 214.886Z" fill="#00BFA6"/>
<path d="M188.863 216.48H188.202V221.088H188.863V216.48Z" fill="#3F3D56"/>
<path d="M49.4213 211.19C49.4213 211.19 49.6496 206.428 54.329 206.982L49.4213 211.19Z" fill="#3F3D56"/>
<path d="M48.0991 206.658C49.3926 206.658 50.4411 205.614 50.4411 204.327C50.4411 203.039 49.3926 201.995 48.0991 201.995C46.8056 201.995 45.757 203.039 45.757 204.327C45.757 205.614 46.8056 206.658 48.0991 206.658Z" fill="#00BFA6"/>
<path d="M48.3791 208.253H47.718V212.86H48.3791V208.253Z" fill="#3F3D56"/>
<path d="M85.4514 204.937C85.4514 204.937 85.6796 200.175 90.3591 200.729L85.4514 204.937Z" fill="#3F3D56"/>
<path d="M84.1292 200.406C85.4226 200.406 86.4712 199.362 86.4712 198.074C86.4712 196.786 85.4226 195.742 84.1292 195.742C82.8357 195.742 81.7871 196.786 81.7871 198.074C81.7871 199.362 82.8357 200.406 84.1292 200.406Z" fill="#00BFA6"/>
<path d="M84.4092 202H83.7481V206.608H84.4092V202Z" fill="#3F3D56"/>
<path d="M175.692 213.823C175.692 213.823 175.92 209.061 180.6 209.614L175.692 213.823Z" fill="#3F3D56"/>
<path d="M174.37 209.291C175.663 209.291 176.712 208.247 176.712 206.959C176.712 205.672 175.663 204.628 174.37 204.628C173.076 204.628 172.028 205.672 172.028 206.959C172.028 208.247 173.076 209.291 174.37 209.291Z" fill="#00BFA6"/>
<path d="M174.65 210.886H173.989V215.493H174.65V210.886Z" fill="#3F3D56"/>
<path d="M277.337 204.277L290.942 224.36L278.275 236.971L276.633 233.702L279.448 227.163C279.448 227.163 278.979 221.091 277.337 219.456C275.695 217.822 268.423 208.013 268.423 208.013L277.337 204.277Z" fill="#FFB8B8"/>
<path d="M259.979 139.355C259.979 139.355 262.559 143.42 257.164 160.935C257.164 160.935 282.329 203.219 278.341 206.021C274.353 208.824 263.562 215.026 260.748 213.157C257.933 211.289 237.46 147.996 237.46 147.996L259.979 139.355Z" fill="#2F2E41"/>
<path d="M288.479 220.741L292.584 224.827C294.695 226.929 296.102 229.965 292.115 232.534C288.127 235.103 274.288 244.678 269.596 241.642C264.905 238.606 275.226 235.804 275.226 235.804C275.226 235.804 276.932 229.504 277.838 230.902C278.744 232.301 278.744 235.103 278.744 235.103L288.479 220.741Z" fill="#2F2E41"/>
<path d="M238.868 215.253C238.868 215.253 231.362 229.031 231.362 230.666C231.362 232.301 231.831 236.971 231.831 236.971L217.522 240.474L212.596 238.139L214.238 233.935C214.238 233.935 223.152 230.899 225.028 225.061C226.905 219.223 229.016 213.151 229.016 213.151L238.868 215.253Z" fill="#FFB8B8"/>
<path d="M247.547 78.1696C252.988 78.1696 257.399 73.7783 257.399 68.3613C257.399 62.9443 252.988 58.5529 247.547 58.5529C242.106 58.5529 237.695 62.9443 237.695 68.3613C237.695 73.7783 242.106 78.1696 247.547 78.1696Z" fill="#FFB8B8"/>
<path d="M244.967 76.7684L249.67 90.2234L259.979 85.6427C259.979 85.6427 252.942 74.9002 252.942 73.499L244.967 76.7684Z" fill="#FFB8B8"/>
<path d="M243.559 124.642H255.991C255.991 124.642 264.905 138.187 259.744 152.433C258.954 154.614 258.17 157.67 257.387 161.283C255.586 169.591 253.793 180.846 251.956 191.188C249.375 205.715 246.707 218.441 243.806 218.672C237.942 219.139 226.538 219.061 226.538 216.726C226.538 214.39 234.177 146.828 234.177 146.828L235.818 144.026L236.129 131.819C236.178 129.892 236.983 128.062 238.373 126.72C239.762 125.379 241.624 124.633 243.559 124.642Z" fill="#2F2E41"/>
<path d="M231.244 230.549C231.244 230.549 233.942 235.103 233.238 238.372C232.535 241.642 231.362 241.175 226.201 241.642C221.041 242.109 203.448 242.109 203.448 238.839C203.448 235.57 217.172 231.324 217.23 232.63C217.288 233.935 217.757 236.504 216.349 236.971C214.942 237.438 216.232 237.088 216.232 237.088L231.244 230.549Z" fill="#2F2E41"/>
<path d="M244.969 153.791C244.969 153.791 243.948 170.38 237.143 165.442C230.337 160.503 239.795 151.582 239.795 151.582L244.969 153.791Z" fill="white"/>
<path d="M258.552 131.943C258.879 132.09 259.24 132.145 259.596 132.103C259.953 132.061 260.291 131.923 260.574 131.704C260.986 131.383 261.26 130.918 261.342 130.403C262.326 124.756 263.524 109.1 264.214 101.183C265.079 91.249 260.754 83.5549 260.718 83.508L258.17 80.0191C257.905 79.6545 257.524 79.3899 257.089 79.2684C256.654 79.1468 256.19 79.1755 255.774 79.3496C255.774 79.3496 247.817 87.5685 247.788 87.8858C247.663 89.2485 246.716 92.2682 241.78 97.1824C236.379 102.559 236.349 107.252 236.469 108.563C236.476 108.649 236.48 108.735 236.481 108.821C236.47 109.409 236.551 109.995 236.719 110.558C238.981 117.658 237.209 126.159 234.364 135.032C234.256 135.433 234.277 135.858 234.422 136.247C234.567 136.636 234.83 136.97 235.175 137.204C236.005 137.767 235.009 136.932 235.305 137.293C237.266 139.685 240.087 136.352 243.315 132.714C244.439 131.447 245.713 130.011 247.215 128.516C249.28 126.46 253.225 131.151 255.06 131.151C256.267 131.166 257.457 131.435 258.552 131.943Z" fill="#575A89"/>
<path d="M259.646 87.1305C259.646 87.1305 264.799 91.4569 261.871 97.0678C258.944 102.679 259.333 106.817 259.333 106.817C259.333 106.817 258.554 145.362 249.406 143.489L245.246 154.926L237.731 152.225L242.076 142.138C242.076 142.138 238.596 141.922 239.613 139.562C240.327 137.903 244.175 119.909 246.403 109.344C247.347 104.867 248 101.724 248 101.724C248 101.724 250.96 85.9632 259.646 87.1305Z" fill="#575A89"/>
<path opacity="0.2" d="M260.727 106.718L257.829 125.644L259.392 105.407L260.727 106.718Z" fill="black"/>
<path d="M236.798 64.0155C236.798 64.0155 235.142 51.1825 248.656 55.3907C248.656 55.3907 258.308 53.6276 261.473 65.6473L264.678 78.2469L263.116 77.4005L262.388 78.9852L259.857 79.6234L258.774 77.4831L258.25 80.0822L237.519 82.1398C237.519 82.1398 246.804 76.6729 246.951 66.875L245.182 68.7357L236.798 64.0155Z" fill="#2F2E41"/>
<path opacity="0.2" d="M252.215 191.926L256.838 161.259L253.078 194.365L252.215 191.926Z" fill="black"/>
<path d="M259.77 60.7062C262.649 60.7062 264.983 58.3826 264.983 55.5164C264.983 52.6501 262.649 50.3265 259.77 50.3265C256.891 50.3265 254.557 52.6501 254.557 55.5164C254.557 58.3826 256.891 60.7062 259.77 60.7062Z" fill="#2F2E41"/>
<path d="M254.399 54.2458C254.484 52.9291 255.071 51.6944 256.039 50.7932C257.007 49.892 258.284 49.392 259.609 49.3952C259.501 49.3816 259.395 49.3651 259.285 49.3581C258.602 49.314 257.916 49.4043 257.268 49.624C256.62 49.8437 256.021 50.1884 255.507 50.6385C254.992 51.0885 254.572 51.635 254.27 52.2468C253.968 52.8586 253.79 53.5237 253.746 54.204C253.702 54.8844 253.793 55.5667 254.014 56.212C254.235 56.8573 254.581 57.4529 255.034 57.9648C255.486 58.4767 256.035 58.8949 256.65 59.1954C257.265 59.4959 257.933 59.6729 258.616 59.7163C258.726 59.7234 258.834 59.7206 258.942 59.7208C257.627 59.555 256.426 58.8964 255.581 57.8792C254.737 56.862 254.314 55.5627 254.399 54.2458Z" fill="#2F2E41"/>
<path opacity="0.2" d="M244.894 112.616L240.307 137.089L246.252 110.058L244.894 112.616Z" fill="black"/>
<path d="M245.18 75.4296L242.507 77.4361C239.754 76.0568 237.689 72.8656 236.938 69.8197L239.851 68.3564C240.08 71.463 242.295 73.5284 245.18 75.4296Z" fill="white"/>
<path d="M246.29 68.7985H239.629C239.57 68.7985 239.514 68.7752 239.472 68.7337C239.431 68.6923 239.407 68.636 239.407 68.5774C239.407 68.5188 239.431 68.4626 239.472 68.4211C239.514 68.3797 239.57 68.3564 239.629 68.3564H246.29C246.349 68.3564 246.405 68.3797 246.447 68.4211C246.489 68.4626 246.512 68.5188 246.512 68.5774C246.512 68.636 246.489 68.6923 246.447 68.7337C246.405 68.7752 246.349 68.7985 246.29 68.7985Z" fill="white"/>
<path d="M244.958 75.4295C244.922 75.4296 244.886 75.4207 244.854 75.4038C244.822 75.3869 244.794 75.3624 244.774 75.3324C244.754 75.3025 244.741 75.2681 244.737 75.2322C244.733 75.1963 244.738 75.16 244.752 75.1265L246.528 70.7057C246.539 70.6787 246.555 70.6541 246.575 70.6332C246.595 70.6123 246.62 70.5957 246.646 70.5842C246.673 70.5727 246.702 70.5666 246.731 70.5662C246.761 70.5658 246.789 70.5712 246.817 70.582C246.844 70.5928 246.868 70.6088 246.889 70.6291C246.91 70.6494 246.927 70.6737 246.938 70.7004C246.95 70.7271 246.956 70.7559 246.956 70.7849C246.956 70.814 246.951 70.8428 246.94 70.8698L245.164 75.2905C245.147 75.3316 245.119 75.3667 245.082 75.3915C245.045 75.4163 245.002 75.4295 244.958 75.4295Z" fill="white"/>
<path d="M246.738 71.4102C247.638 71.4102 248.367 70.3937 248.367 69.1397C248.367 67.8857 247.638 66.8691 246.738 66.8691C245.838 66.8691 245.109 67.8857 245.109 69.1397C245.109 70.3937 245.838 71.4102 246.738 71.4102Z" fill="#FFB8B8"/>
<path d="M131.953 75.9793L149.302 79.932L156.633 66.1678L141.798 60.4014L131.953 75.9793Z" fill="#2F2E41"/>
<path d="M141.171 150.074C141.171 150.074 135.594 162.798 135.594 166.5C135.594 166.5 137.801 176.564 137.104 179.34L134.664 184.545L129.552 182.463L128.158 168.582L128.39 146.373L141.171 150.074Z" fill="#FFB9B9"/>
<path d="M144.308 73.962C144.308 73.962 144.773 81.5963 143.843 83.9098C142.914 86.2232 147.329 90.6188 147.329 90.6188L154.3 81.5963C154.3 81.5963 149.652 76.9694 150.814 71.8799L144.308 73.962Z" fill="#FFB9B9"/>
<path d="M129.785 126.824C129.785 126.824 123.046 139.317 129.552 138.392C136.059 137.466 133.851 126.477 133.851 126.477" fill="#E6E6E6"/>
<path d="M133.851 126.477L136.059 104.615L135.942 91.313L130.83 92.2381V104.499L129.785 126.824" fill="#FFB9B9"/>
<path d="M128.274 180.843L138.266 176.911L139.428 196.575C139.428 196.575 141.519 202.59 140.822 204.903C140.822 204.903 141.287 208.836 140.125 209.068C138.963 209.299 135.71 209.762 135.478 209.53C135.245 209.299 135.245 208.605 135.245 208.605C135.245 208.605 132.922 210.224 132.689 212.075C132.689 212.075 122.93 215.083 122.697 212.306C122.465 209.53 127.577 207.217 127.577 207.217L131.527 201.202L128.274 180.843Z" fill="#2F2E41"/>
<path d="M161.968 150.074C161.968 150.074 156.391 162.798 156.391 166.5C156.391 166.5 158.599 176.564 157.902 179.34L155.462 184.545L150.35 182.463L148.955 168.582L149.188 146.373L161.968 150.074Z" fill="#FFB9B9"/>
<path d="M149.42 180.843L159.412 176.911L160.574 196.575C160.574 196.575 162.665 202.59 161.968 204.903C161.968 204.903 162.433 208.836 161.271 209.068C160.109 209.299 156.856 209.762 156.624 209.53C156.391 209.299 156.391 208.605 156.391 208.605C156.391 208.605 154.067 210.224 153.835 212.075C153.835 212.075 144.075 215.083 143.843 212.306C143.611 209.53 148.723 207.217 148.723 207.217L152.673 201.202L149.42 180.843Z" fill="#2F2E41"/>
<path d="M154.069 68.6421C154.068 70.464 153.393 72.2216 152.172 73.5786C150.951 74.9357 149.27 75.7969 147.451 75.9974C145.632 76.1979 143.803 75.7237 142.314 74.6655C140.824 73.6073 139.778 72.0394 139.377 70.2619C139.255 69.7306 139.194 69.1872 139.195 68.6421C139.197 66.6793 139.981 64.7973 141.375 63.4099C142.77 62.0224 144.661 61.243 146.632 61.243C148.604 61.243 150.495 62.0224 151.889 63.4099C153.284 64.7973 154.068 66.6793 154.069 68.6421Z" fill="#FFB9B9"/>
<path d="M147.561 83.4471L153.331 80.4637L155.926 82.5217C155.926 82.5217 162.2 82.2903 164.524 85.0665C166.848 87.8426 168.126 94.8987 168.126 94.8987C168.126 94.8987 160.458 93.2792 161.387 99.7569L159.993 96.0554L158.715 99.1786L143.146 104.499L136.175 92.7009C136.175 92.7009 131.527 91.3128 129.901 94.5516C129.901 94.5516 130.249 82.8687 134.781 82.5217C137.828 82.2883 140.125 82.2904 140.125 82.2904L142.681 81.8277L144.318 81.2493L147.561 83.4471Z" fill="#575A89"/>
<path d="M157.437 108.779C157.437 108.779 169.636 145.216 166.151 150.306C166.151 150.306 153.138 156.784 127.112 147.992L137.685 107.16C144.18 105.838 150.764 106.377 157.437 108.779Z" fill="#2F2E41"/>
<path d="M157.437 108.779L160.87 97.0327C156.752 92.5734 160.306 82.6851 160.306 82.6851L155.337 81.6248C155.337 81.6248 150.35 95.0143 145.237 93.3949C140.125 91.7755 142.914 81.365 142.914 81.365L138.266 81.8277L136.175 89.9248L137.685 107.16C143.984 106.622 150.591 107.248 157.437 108.779Z" fill="#575A89"/>
<path d="M163.478 126.477L165.105 104.499L165.57 91.313L160.458 92.2381V104.499L159.412 126.824" fill="#FFB9B9"/>
<path d="M159.412 126.824C159.412 126.824 152.673 139.317 159.18 138.392C165.686 137.466 163.478 126.477 163.478 126.477" fill="white"/>
<path d="M168.126 94.8987C168.126 94.8987 167.3 83.0178 160.393 83.0589V96.7986C160.393 96.7986 165.57 93.7419 168.126 94.8987Z" fill="#575A89"/>
<path d="M149.01 70.5526C148.971 70.5526 148.932 70.5405 148.9 70.5178C148.868 70.4952 148.844 70.4632 148.831 70.4263C148.818 70.3893 148.817 70.3493 148.828 70.3117C148.838 70.2741 148.861 70.2407 148.891 70.2163L152.684 67.1958C152.703 67.1801 152.726 67.1684 152.75 67.1614C152.774 67.1543 152.799 67.152 152.824 67.1547C152.849 67.1574 152.873 67.1649 152.895 67.1769C152.917 67.1889 152.936 67.2051 152.951 67.2245C152.967 67.244 152.979 67.2663 152.986 67.2902C152.993 67.3142 152.995 67.3392 152.992 67.364C152.989 67.3887 152.981 67.4127 152.969 67.4344C152.957 67.4562 152.94 67.4753 152.921 67.4908L149.128 70.5113C149.095 70.538 149.053 70.5526 149.01 70.5526Z" fill="white"/>
<path d="M149.297 75.0833C149.214 75.1852 149.13 75.2872 149.043 75.3816C148.037 75.8358 146.941 76.0611 145.837 76.0411C144.732 76.0211 143.646 75.7563 142.657 75.266C141.668 74.7757 140.801 74.0722 140.119 73.2066C139.438 72.3409 138.958 71.335 138.716 70.2618L142.31 69.6036L149.297 70.2618C147.697 72.2025 147.89 72.8745 149.297 75.0833Z" fill="white"/>
<path d="M142.433 58.2792C142.433 58.2792 138.59 58.9989 137.701 63.771C137.562 64.5758 137.537 65.3959 137.626 66.2077C137.715 67.1263 137.586 69.0664 135.582 71.3509C134.275 72.8326 133.057 74.39 131.935 76.0149L135.951 77.0793L137.745 70.4551C138.615 67.2435 139.955 64.177 141.722 61.3541L141.759 61.2951C141.759 61.2951 143.093 64.8433 146.668 65.3297L145.566 63.8849C145.566 63.8849 149.745 66.2901 152.112 67.0248C152.383 67.1087 152.625 67.2644 152.813 67.4752C153.001 67.6859 153.127 67.9437 153.179 68.2208C153.23 68.4979 153.205 68.7837 153.106 69.0475C153.006 69.3114 152.836 69.5432 152.614 69.718C152.598 69.7312 152.581 69.7443 152.563 69.7575C150.822 71.0744 147.269 74.2167 148.672 77.2564C150.076 80.2961 148.439 80.8503 148.439 80.8503L151.457 79.7071L152.839 79.1182L152.699 80.1351L159.443 80.2757C159.443 80.2757 161.266 80.2647 158.029 75.4217C158.029 75.4217 157.248 73.6058 157.889 72.2184C158.403 71.1678 158.66 70.0104 158.636 68.8417C158.432 63.959 156.366 54.0257 142.433 58.2792Z" fill="#2F2E41"/>
<path d="M47.8294 197.36C47.8294 197.36 47.8294 228.776 40.5873 237.016C40.5873 237.016 39.0354 241.136 38.5181 242.681C38.2288 243.561 37.8833 244.421 37.4835 245.256V247.316C37.4835 247.316 23.5165 245.771 21.9646 242.166L24.5511 239.076C24.5511 239.076 25.0684 238.561 24.5511 237.016C24.0338 235.471 25.5857 235.471 25.5857 235.471L29.2068 227.231L28.6895 193.24L31.2759 146.374L53.5197 145.344L47.8294 197.36Z" fill="#2F2E41"/>
<path d="M36.4489 244.226C36.4489 244.226 40.07 255.042 36.4489 255.557C32.8278 256.072 1.27278 256.587 1.79008 252.467C2.30738 248.346 12.6533 248.861 12.6533 248.861L23.5165 242.166L36.4489 244.226Z" fill="#2F2E41"/>
<path d="M68.5213 146.374C68.5213 146.374 69.5558 153.069 65.4175 160.28C61.2791 167.49 63.8656 191.695 63.8656 191.695L100.594 223.626C100.594 223.626 93.3515 235.986 90.765 235.471C88.1785 234.956 47.3121 201.995 47.3121 201.995L31.2759 148.434L68.5213 146.374Z" fill="#2F2E41"/>
<path d="M100.089 222.261C100.089 222.261 111.203 225.006 109.701 228.327C108.2 231.648 91.7436 258.458 88.5251 255.817C85.3067 253.177 91.2823 244.752 91.2823 244.752L91.4179 232.033L100.089 222.261Z" fill="#2F2E41"/>
<path d="M60.2445 50.583C60.2486 53.2962 59.3118 55.9276 57.5923 58.0326C56.2327 59.7102 54.438 60.9855 52.4025 61.7205C50.3671 62.4555 48.1685 62.6221 46.0448 62.2023C44.9814 61.9977 43.9522 61.6452 42.9875 61.155C41.4554 60.3862 40.1086 59.2963 39.0395 57.9604C37.9704 56.6244 37.2043 55.0739 36.794 53.4153C36.5628 52.4888 36.4467 51.5376 36.4483 50.583C36.4483 47.4413 37.7018 44.4284 39.9331 42.2069C42.1645 39.9854 45.1908 38.7374 48.3464 38.7374C51.502 38.7374 54.5283 39.9854 56.7596 42.2069C58.9909 44.4284 60.2445 47.4413 60.2445 50.583Z" fill="#A0616A"/>
<path d="M57.7081 54.7615L57.1819 70.0042L47.1708 73.9422C47.1708 73.9422 46.189 58.3348 44.8031 57.4695C43.4173 56.6042 57.7081 54.7615 57.7081 54.7615Z" fill="#A0616A"/>
<path d="M44.7256 75.8177C44.7256 75.8177 58.6926 61.9124 62.3137 62.4274C65.9348 62.9424 65.9348 64.4874 65.9348 65.5174C65.9348 66.5475 64.9002 67.0625 65.9348 67.5775C66.9694 68.0925 68.0039 67.5775 68.0039 69.1225C68.0039 70.6676 77.3153 86.1179 74.2115 103.113C71.1077 120.109 67.4866 128.349 69.0385 137.619C70.5904 146.889 69.5558 148.949 69.5558 148.949C69.5558 148.949 30.7586 152.039 30.2414 148.434C29.7241 144.829 31.7932 146.889 29.2068 144.314C26.6203 141.739 27.6549 141.739 27.6549 140.194C27.6549 138.649 39.0354 75.8177 44.7256 75.8177Z" fill="#575A89"/>
<path d="M51.9678 145.859C51.9678 145.859 45.7602 160.795 41.1046 157.189C36.4489 153.584 43.1737 141.224 43.1737 141.224L51.9678 145.859Z" fill="white"/>
<path d="M66.9693 76.8477C66.9693 76.8477 79.1232 78.233 74.5982 100.458C70.0731 122.684 52.4851 148.434 52.4851 148.434L40.5873 142.769L56.1061 112.383L52.4851 93.3281C52.4851 93.3281 50.4159 75.3027 66.9693 76.8477Z" fill="#575A89"/>
<path opacity="0.2" d="M56.3649 112.641L39.2939 140.967L40.8459 142.512L56.3649 112.641Z" fill="black"/>
<path opacity="0.2" d="M65.4005 125.841L51.7091 148.177H56.3649L65.4005 125.841Z" fill="black"/>
<path opacity="0.2" d="M34.4731 166.431L33.7854 166.692L47.398 202.226L48.0857 201.965L34.4731 166.431Z" fill="black"/>
<path d="M44.799 78.6454C45.2054 78.6454 45.5349 78.3174 45.5349 77.9127C45.5349 77.5081 45.2054 77.1801 44.799 77.1801C44.3925 77.1801 44.0631 77.5081 44.0631 77.9127C44.0631 78.3174 44.3925 78.6454 44.799 78.6454Z" fill="#D0CDE1"/>
<path d="M38.5439 98.4267C38.6225 98.4267 38.6991 98.4016 38.7623 98.3551C38.8255 98.3087 38.8722 98.2432 38.8953 98.1684L45.1504 78.021C45.1648 77.975 45.1699 77.9267 45.1655 77.8787C45.1611 77.8308 45.1472 77.7842 45.1247 77.7416C45.1022 77.6989 45.0714 77.6612 45.0342 77.6304C44.997 77.5996 44.9541 77.5765 44.9079 77.5623C44.8617 77.548 44.8131 77.543 44.765 77.5475C44.7168 77.552 44.67 77.5659 44.6272 77.5884C44.5845 77.6109 44.5466 77.6416 44.5158 77.6787C44.4849 77.7157 44.4618 77.7585 44.4476 77.8046L38.1925 97.9524C38.1756 98.0071 38.1718 98.0651 38.1814 98.1216C38.1911 98.1781 38.2139 98.2316 38.2481 98.2777C38.2823 98.3238 38.3268 98.3613 38.3782 98.3872C38.4296 98.4131 38.4863 98.4266 38.5439 98.4267V98.4267Z" fill="#D0CDE1"/>
<path d="M45.9608 59.6553L42.9875 62.4714C39.9254 60.9372 36.9676 56.8033 36.1329 53.4153L40.034 51.7877C40.2887 55.2432 42.7524 57.5405 45.9608 59.6553Z" fill="white"/>
<path d="M46.7022 53.2629C46.6904 53.2629 46.6786 53.2621 46.667 53.2605L39.7523 52.277C39.7202 52.2725 39.6893 52.2617 39.6614 52.2453C39.6335 52.2289 39.6091 52.2071 39.5896 52.1813C39.5701 52.1555 39.5559 52.1261 39.5478 52.0948C39.5398 52.0635 39.538 52.031 39.5425 51.999C39.5471 51.967 39.5579 51.9363 39.5744 51.9085C39.5909 51.8807 39.6128 51.8564 39.6387 51.837C39.6646 51.8176 39.6941 51.8035 39.7256 51.7954C39.757 51.7874 39.7897 51.7856 39.8218 51.7901L46.7364 52.7736C46.7983 52.7823 46.8545 52.814 46.8938 52.8624C46.9331 52.9107 46.9525 52.9721 46.9481 53.0341C46.9438 53.0961 46.916 53.1542 46.8704 53.1967C46.8247 53.2391 46.7646 53.2628 46.7022 53.2629Z" fill="white"/>
<path d="M45.7139 59.6553C45.6708 59.6553 45.6284 59.6441 45.5909 59.6228C45.5535 59.6014 45.5224 59.5707 45.5006 59.5336C45.4788 59.4965 45.4672 59.4544 45.4669 59.4115C45.4666 59.3686 45.4776 59.3263 45.4988 59.2889L47.7898 55.2284C47.8057 55.2001 47.8269 55.1753 47.8524 55.1553C47.8779 55.1352 47.9072 55.1204 47.9384 55.1117C47.9697 55.1029 48.0024 55.1004 48.0346 55.1042C48.0669 55.1081 48.0981 55.1182 48.1264 55.1341C48.1547 55.1499 48.1796 55.1712 48.1996 55.1966C48.2196 55.2221 48.2344 55.2512 48.2431 55.2824C48.2518 55.3135 48.2543 55.3461 48.2503 55.3782C48.2463 55.4103 48.2361 55.4413 48.22 55.4694L45.929 59.53C45.9076 59.568 45.8763 59.5997 45.8385 59.6217C45.8007 59.6437 45.7577 59.6553 45.7139 59.6553Z" fill="white"/>
<path d="M53.7318 57.6999C52.7686 57.1929 51.6497 57.0883 50.6072 56.7732C46.8772 55.6457 44.3785 51.4478 45.1763 47.649C45.3237 47.1618 45.3899 46.6538 45.3722 46.1453C45.2327 45.0202 44.0764 44.2943 42.9676 44.0365C41.8588 43.7787 40.679 43.8161 39.6193 43.4016C37.9829 42.7616 36.896 41.0874 36.6604 39.3529C36.4247 37.6184 36.9417 35.8493 37.7825 34.3122L38.183 35.4596C38.7939 34.9448 39.2473 34.2697 39.4917 33.511C39.9469 33.5872 40.3748 33.7784 40.7345 34.0663C41.0941 34.3543 41.3735 34.7294 41.5459 35.1556C42.1888 35.5331 42.2814 33.9831 42.9915 33.7545C43.2889 33.6587 43.5946 33.8406 43.8779 33.9721C45.3088 34.6365 46.9712 34.0685 48.5062 33.7002C51.1641 33.0654 53.9348 33.0622 56.5942 33.6907C58.361 34.1102 60.1099 34.8408 61.3742 36.1392C62.4125 37.2056 63.0594 38.5844 63.6102 39.9646C64.9662 43.3622 65.8621 47.0385 65.4144 50.6672C65.0416 53.6366 63.7938 56.4296 61.8284 58.6938C60.8046 59.8682 57.4642 63.9654 55.6326 63.2669C53.3312 62.3891 56.4434 59.1273 53.7318 57.6999Z" fill="#2F2E41"/>
</g>
<defs>
<clipPath id="clip0_2_152">
<rect width="300.346" height="256" fill="white"/>
</clipPath>
</defs>
</svg>
