<svg width="368" height="256" viewBox="0 0 368 256" fill="none" xmlns="http://www.w3.org/2000/svg">
<path d="M307.348 39.3639L278.971 39.6403C277.638 33.0751 273.156 15.8493 277.192 11.1507C277.376 9.38234 278.235 7.75301 279.59 6.60192C280.946 5.45084 282.693 4.86671 284.468 4.97111C288.866 -1.9123 296.192 -0.878799 301.143 3.42019C306.126 5.1393 308.005 8.1934 307.348 12.338C311.038 15.5676 311.719 19.497 310.062 23.9698L307.348 39.3639Z" fill="#2F2E41"/>
<path d="M304.616 56.8414L284.143 54.0072L280.049 48.0239C285.689 44.2832 287.685 39.0584 285.088 31.9634L299.262 31.6485C298.597 37.9667 300.687 42.8587 306.506 45.8195L304.616 56.8414Z" fill="#FFB9B9"/>
<path d="M279.303 241.468L278.52 252.168C278.485 252.653 278.553 253.139 278.721 253.595C278.889 254.05 279.153 254.465 279.494 254.81C279.835 255.156 280.247 255.424 280.7 255.598C281.154 255.772 281.639 255.846 282.124 255.817L287.621 255.484C287.876 255.468 288.124 255.397 288.348 255.275C288.572 255.153 288.766 254.983 288.917 254.777C289.068 254.571 289.172 254.335 289.221 254.084C289.27 253.834 289.263 253.576 289.201 253.328L286.15 241.126L279.303 241.468Z" fill="#E6E6E6"/>
<path d="M297.099 241.126L294.048 253.328C293.986 253.576 293.979 253.834 294.028 254.084C294.078 254.335 294.181 254.571 294.332 254.777C294.483 254.983 294.677 255.153 294.901 255.275C295.125 255.397 295.373 255.468 295.628 255.484L301.125 255.817C301.61 255.846 302.095 255.772 302.549 255.598C303.003 255.424 303.414 255.156 303.755 254.81C304.097 254.465 304.36 254.05 304.528 253.595C304.696 253.139 304.764 252.653 304.729 252.168L303.946 241.468L297.099 241.126Z" fill="#E6E6E6"/>
<path d="M304.301 242.954L296.883 242.209L289.498 163.281L286.707 241.955L279.419 241.694L267.135 132.735H314.065L304.301 242.954Z" fill="#00BFA6"/>
<path d="M292.962 37.002C300.79 37.002 307.136 30.6575 307.136 22.8311C307.136 15.0046 300.79 8.66006 292.962 8.66006C285.135 8.66006 278.789 15.0046 278.789 22.8311C278.789 30.6575 285.135 37.002 292.962 37.002Z" fill="#FFB9B9"/>
<path d="M320.994 135.254L263.671 135.884C272.178 103.504 277.267 73.4256 268.395 52.7476L282.568 45.8195C289.403 52.9465 297.014 52.2117 305.246 45.1897L318.789 48.6537C316.47 75.7698 317.509 104.811 320.994 135.254Z" fill="#00BFA6"/>
<path d="M247.922 101.874L283.513 116.045L291.471 118.385C291.827 118.489 292.2 118.521 292.568 118.478C292.937 118.434 293.293 118.317 293.615 118.133C293.937 117.949 294.218 117.701 294.442 117.405C294.666 117.11 294.828 116.772 294.918 116.412C295.076 115.781 295.005 115.114 294.718 114.531C294.431 113.947 293.947 113.484 293.351 113.223L285.088 110.691L260.206 96.2052L265.403 82.5066L254.537 76.6808L247.922 101.874Z" fill="#FFB9B9"/>
<path d="M248.237 76.051C255.009 78.6923 260.395 83.2001 264.615 89.2772L277.844 70.0677L268.395 52.7476L248.237 76.051Z" fill="#00BFA6"/>
<path d="M308.936 20.5344C303.184 19.0524 297.528 18.849 292.03 20.7287C288.528 22.4246 284.322 22.2684 279.645 20.871V6.7326L304.896 7.40586L308.936 20.5344Z" fill="#2F2E41"/>
<path d="M283.395 85.3626C282.282 85.3639 281.215 85.8064 280.428 86.5933C279.641 87.3801 279.199 88.4469 279.197 89.5597L280.854 124.239C280.856 125.352 281.298 126.419 282.085 127.205C282.872 127.992 283.939 128.435 285.052 128.436H303.996C305.109 128.435 306.176 127.992 306.963 127.205C307.75 126.419 308.193 125.352 308.194 124.239L309.851 89.5597C309.85 88.4469 309.407 87.3801 308.62 86.5933C307.833 85.8064 306.766 85.3639 305.653 85.3626H283.395Z" fill="#3F3D56"/>
<path d="M337.145 99.2538L306.123 111.604L303.782 112.536C303.708 112.565 303.633 112.59 303.555 112.615L295.713 114.922C294.711 115.216 293.323 113.866 292.511 112.934C292.109 112.485 291.881 111.906 291.869 111.304C291.857 110.701 292.061 110.114 292.445 109.649C292.553 109.525 292.672 109.41 292.801 109.306C293.103 109.071 293.459 108.914 293.837 108.85L301.67 107.309C301.951 107.254 302.221 107.154 302.469 107.011L306.123 104.882L325.091 93.8407C325.619 93.5341 326.02 93.0503 326.224 92.4753C326.428 91.9004 326.422 91.2717 326.205 90.7012L322.585 81.1547C322.363 80.5706 322.361 79.9256 322.58 79.3403C322.799 78.7549 323.223 78.2692 323.774 77.9739L329.772 74.7599C330.115 74.5759 330.495 74.4721 330.883 74.4563C331.272 74.4405 331.659 74.5131 332.016 74.6686C332.372 74.8241 332.689 75.0585 332.942 75.3541C333.195 75.6497 333.377 75.9988 333.475 76.3752L338.682 96.2055C338.842 96.8136 338.774 97.4593 338.491 98.0208C338.208 98.5823 337.729 99.0208 337.145 99.2538Z" fill="#FFB9B9"/>
<path d="M338.947 72.587C332.176 75.2283 326.79 79.7361 322.569 85.8132L309.34 66.6037L318.789 48.6537L338.947 72.587Z" fill="#00BFA6"/>
<path d="M302.395 35.4439C296.194 38.0226 289.693 37.9179 282.926 35.4439C284.895 32.0833 281.951 29.4514 280.44 26.059L305.709 25.3082C303.776 28.2552 300.925 31.7371 302.395 35.4439Z" fill="white"/>
<path d="M305.441 25.869L305.148 25.5761L305.562 25.162L308.037 22.2744L308.352 22.5436L305.866 25.4428L305.441 25.869Z" fill="white"/>
<path d="M278.709 24.1137L278.443 24.432L280.929 26.5029L281.194 26.1846L278.709 24.1137Z" fill="white"/>
<path d="M306.155 28.3039L301.805 35.137L302.154 35.3595L306.505 28.5264L306.155 28.3039Z" fill="white"/>
<path d="M279.165 28.3033L278.815 28.5258L283.165 35.3595L283.514 35.1371L279.165 28.3033Z" fill="white"/>
<path d="M306.951 104.297V111.8L304.339 112.84C304.256 112.872 304.172 112.9 304.085 112.928L295.332 115.503C294.213 115.831 292.664 114.324 291.757 113.284C291.309 112.783 291.054 112.137 291.041 111.464C291.027 110.792 291.255 110.137 291.683 109.618C291.804 109.478 291.937 109.35 292.081 109.234C292.418 108.971 292.816 108.797 293.237 108.725L301.981 107.006C302.294 106.944 302.596 106.832 302.873 106.673L306.951 104.297Z" fill="white"/>
<path d="M310.738 77.5331H309.241C309.241 56.3647 304.881 41.6128 300.633 41.6128L300.259 40.1161C304.069 40.1161 306.498 46.2557 307.864 51.4064C309.717 58.3891 310.738 67.6677 310.738 77.5331Z" fill="#3F3D56"/>
<path d="M276.308 72.2948H274.811C274.811 52.9079 279.2 40.8645 285.664 40.8645L285.29 42.3612C280.819 42.3612 276.308 51.6169 276.308 72.2948Z" fill="#3F3D56"/>
<path d="M309.989 81.649C312.056 81.649 313.731 79.9738 313.731 77.9073C313.731 75.8408 312.056 74.1656 309.989 74.1656C307.922 74.1656 306.247 75.8408 306.247 77.9073C306.247 79.9738 307.922 81.649 309.989 81.649Z" fill="#3F3D56"/>
<path d="M270.32 81.2748H268.823C268.823 75.9105 271.845 71.5464 275.559 71.5464V73.0431C272.67 73.0431 270.32 76.7358 270.32 81.2748Z" fill="#3F3D56"/>
<path d="M282.296 81.2748H280.799C280.799 76.7358 278.448 73.0431 275.559 73.0431V71.5464C279.274 71.5464 282.296 75.9105 282.296 81.2748Z" fill="#3F3D56"/>
<path d="M281.547 83.1457C282.374 83.1457 283.044 82.4756 283.044 81.649C283.044 80.8224 282.374 80.1523 281.547 80.1523C280.72 80.1523 280.05 80.8224 280.05 81.649C280.05 82.4756 280.72 83.1457 281.547 83.1457Z" fill="#3F3D56"/>
<path d="M269.572 83.1457C270.398 83.1457 271.069 82.4756 271.069 81.649C271.069 80.8224 270.398 80.1523 269.572 80.1523C268.745 80.1523 268.075 80.8224 268.075 81.649C268.075 82.4756 268.745 83.1457 269.572 83.1457Z" fill="#3F3D56"/>
<path d="M89.1736 31.3515L62.8834 35.8028C62.234 35.9136 61.5665 35.7795 61.0102 35.4266C60.4539 35.0737 60.0483 34.527 59.8719 33.8924C57.9725 27.0381 54.0013 18.0965 57.8569 13.6078C58.0533 11.7194 58.9706 9.97956 60.4178 8.75038C61.865 7.52121 63.7305 6.89743 65.6261 7.00892C70.3227 -0.34147 78.1454 0.762145 83.4326 5.35279C88.7537 7.18852 90.7598 10.4498 90.0583 14.8755C92.357 16.8873 93.5622 19.1534 93.8163 21.6405C93.9368 23.0246 93.7606 24.4184 93.2996 25.729C92.8386 27.0396 92.1034 28.2369 91.1429 29.2408L89.1736 31.3515Z" fill="#2F2E41"/>
<path d="M85.0862 52.0454L64.7054 50.8468C66.7027 46.2632 67.5006 41.8495 66.7035 37.6615H81.8892C81.8548 40.877 83.4552 46.4394 85.0862 52.0454Z" fill="#9F616A"/>
<path d="M60.5534 240.337L59.7175 251.763C59.6796 252.28 59.7528 252.8 59.9322 253.286C60.1115 253.773 60.3928 254.216 60.7573 254.585C61.1217 254.954 61.5609 255.24 62.0452 255.426C62.5296 255.611 63.0481 255.691 63.5658 255.659L69.4356 255.304C69.7076 255.287 69.9726 255.211 70.2118 255.081C70.451 254.95 70.6585 254.769 70.8196 254.549C70.9807 254.329 71.0915 254.077 71.1439 253.809C71.1964 253.542 71.1894 253.266 71.1233 253.002L67.865 239.972L60.5534 240.337Z" fill="#E6E6E6"/>
<path d="M79.5566 239.972L76.2984 253.002C76.2323 253.266 76.2252 253.542 76.2777 253.809C76.3302 254.077 76.4409 254.329 76.602 254.549C76.7631 254.769 76.9707 254.95 77.2099 255.081C77.449 255.211 77.7141 255.287 77.986 255.304L83.8559 255.659C84.3736 255.691 84.892 255.611 85.3764 255.426C85.8608 255.24 86.2999 254.954 86.6644 254.585C87.0288 254.216 87.3102 253.773 87.4895 253.286C87.6688 252.8 87.742 252.28 87.7042 251.763L86.8683 240.337L79.5566 239.972Z" fill="#E6E6E6"/>
<path d="M87.2471 241.924L79.326 241.129L71.4397 156.846L68.4593 240.857L60.677 240.578L47.5601 124.227H97.6735L87.2471 241.924Z" fill="#00BFA6"/>
<path d="M74.6969 42.5119C83.0557 42.5119 89.8319 35.7369 89.8319 27.3795C89.8319 19.0221 83.0557 12.2471 74.6969 12.2471C66.3381 12.2471 59.562 19.0221 59.562 27.3795C59.562 35.7369 66.3381 42.5119 74.6969 42.5119Z" fill="#9F616A"/>
<path d="M91.7548 20.1505C85.612 19.0809 79.5725 18.9341 73.7016 20.2908C69.9618 21.5148 65.4706 21.4021 60.4759 20.3935V10.1889L87.4405 10.6748L91.7548 20.1505Z" fill="#2F2E41"/>
<path d="M84.7694 39.5213C78.1483 42.2749 71.2058 42.1631 63.9794 39.5213C66.0821 35.9327 62.9389 33.1222 61.3253 29.4996L88.3082 28.6979C86.2447 31.8449 83.2 35.563 84.7694 39.5213Z" fill="white"/>
<path d="M59.4674 27.4331L59.2021 27.7514L61.856 29.9626L62.1213 29.6443L59.4674 27.4331Z" fill="white"/>
<path d="M88.7971 31.904L84.1514 39.2007L84.5009 39.4232L89.1466 32.1264L88.7971 31.904Z" fill="white"/>
<path d="M59.9512 31.9036L59.6017 32.126L64.2463 39.4235L64.5958 39.2011L59.9512 31.9036Z" fill="white"/>
<path d="M45.9231 96.396L34.334 89.204L44.2175 60.2624C45.3198 57.2759 47.4312 54.7685 50.1865 53.1735L53.5159 51.2463L53.8054 80.443L45.9231 96.396Z" fill="#00BFA6"/>
<path d="M96.0162 110.452L94.3016 95.7689C94.21 88.0187 95.5288 80.5256 98.6733 73.6214L100.272 52.0454L82.6884 44.8535C82.6345 45.2117 82.5886 45.5697 82.5372 45.9279L74.2963 50.0477L66.2593 48.2214L66.3038 45.6526L50.3189 52.8446C55.6051 77.4164 52.7219 102.933 43.6315 133.073L64.6902 138.83L64.8653 128.72L83.6331 127.38C83.8264 130.66 83.9818 133.882 84.0719 137.032C94.662 140.93 95.0258 140.865 104.675 135.284C100.832 127.207 97.7897 118.801 96.0162 110.452Z" fill="#00BFA6"/>
<path d="M123.05 92.7998L112.261 89.204L95.0017 69.1156L100.272 52.0457L124.249 85.6082L123.05 92.7998Z" fill="#00BFA6"/>
<path d="M89.2352 108.352C89.4118 109.127 89.8883 109.8 90.5604 110.223C91.2325 110.647 92.0453 110.787 92.8205 110.613L101.98 108.539L100.656 102.694L91.4965 104.767C90.7213 104.943 90.0475 105.419 89.6235 106.091C89.1994 106.764 89.0597 107.577 89.2352 108.352V108.352Z" fill="#E6E6E6"/>
<path d="M97.4745 101.59L102.67 111.179C111.408 108.743 118.981 101.061 126.247 92.0008L124.249 85.608L111.861 88.8044L97.4745 101.59Z" fill="#00BFA6"/>
<path d="M29.7382 71.5107L39.7114 73.2913L62.5075 105.699L50.3972 102.85L29.7382 71.5107Z" fill="#E6E6E6"/>
<path d="M27.9694 71.114C27.8174 71.1163 27.6688 71.1594 27.5392 71.2387C27.4096 71.3181 27.3036 71.4308 27.2325 71.5651C27.1614 71.6994 27.1276 71.8503 27.1348 72.0021C27.142 72.1539 27.1898 72.301 27.2733 72.428L48.5815 104.752C48.7004 104.933 48.8841 105.061 49.0947 105.111L59.0088 107.443C59.176 107.482 59.3511 107.47 59.5111 107.407C59.671 107.345 59.8082 107.235 59.9044 107.093C60.0005 106.951 60.0512 106.783 60.0496 106.611C60.048 106.439 59.9943 106.272 59.8955 106.132L36.5004 72.8724C36.4369 72.7818 36.3562 72.7046 36.2629 72.6451C36.1696 72.5857 36.0655 72.5453 35.9565 72.5261L28.1292 71.1285C28.0764 71.119 28.0229 71.1142 27.9694 71.114Z" fill="#3F3D56"/>
<path d="M41.2615 94.2256L41.8537 100.19L51.1988 99.2621C51.9898 99.1836 52.7172 98.7942 53.221 98.1794C53.7249 97.5647 53.9638 96.775 53.8853 95.9841C53.8068 95.1933 53.4173 94.466 52.8024 93.9622C52.1876 93.4585 51.3978 93.2196 50.6067 93.2981L41.2615 94.2256Z" fill="#E6E6E6"/>
<path d="M33.1354 93.5347C33.1489 95.5683 33.9659 97.5142 35.4081 98.9482C36.8503 100.382 38.8009 101.188 40.8349 101.191H42.3716L43.4903 91.8696L34.2277 88.5356L33.1354 93.5347Z" fill="#00BFA6"/>
<path d="M87.5698 29.729L87.277 29.4362L87.7194 28.9939L90.3627 25.9095L90.6771 26.1788L88.023 29.2747L87.5698 29.729Z" fill="white"/>
<path d="M140.427 254.758H227.417V149.262C227.417 143.676 221.914 139.131 215.15 139.131H152.695C145.93 139.131 140.427 143.676 140.427 149.262V254.758Z" fill="#E6E6E6"/>
<path d="M147.055 250.395H220.79V160.975C220.79 156.24 216.125 152.388 210.392 152.388H157.453C151.719 152.388 147.055 156.24 147.055 160.975V250.395Z" fill="white"/>
<path d="M139.77 130.921C137.62 130.921 135.871 132.366 135.871 134.141V143.437C135.871 145.213 137.62 146.657 139.77 146.657H228.075C230.225 146.657 231.974 145.213 231.974 143.437V134.141C231.974 132.366 230.225 130.921 228.075 130.921H139.77Z" fill="#3F3D56"/>
<path d="M157.9 238.929C156.891 238.932 155.923 239.334 155.21 240.048C154.496 240.762 154.093 241.729 154.091 242.738C154.093 243.747 154.496 244.714 155.21 245.428C155.923 246.142 156.891 246.544 157.9 246.547H165.031V238.929H157.9Z" fill="#3F3D56"/>
<path d="M171.576 238.929H164.64V246.547H171.576C172.585 246.544 173.552 246.142 174.266 245.428C174.98 244.714 175.382 243.747 175.385 242.738C175.382 241.729 174.98 240.762 174.266 240.048C173.552 239.334 172.585 238.932 171.576 238.929Z" fill="#00BFA6"/>
<path opacity="0.2" d="M174.062 239.862C174.662 240.551 174.994 241.433 174.995 242.347C174.992 243.357 174.589 244.324 173.876 245.037C173.162 245.751 172.194 246.153 171.185 246.156H164.64V246.547H171.576C172.585 246.544 173.552 246.142 174.266 245.428C174.98 244.714 175.382 243.747 175.385 242.738C175.384 242.192 175.266 241.652 175.037 241.156C174.809 240.659 174.476 240.218 174.062 239.862Z" fill="black"/>
<path d="M190.078 181.556C189.384 180.824 188.428 180.396 187.419 180.366C186.41 180.336 185.43 180.707 184.693 181.397C183.961 182.091 183.533 183.048 183.503 184.056C183.473 185.065 183.844 186.045 184.534 186.781L189.425 191.969L194.97 186.744L190.078 181.556Z" fill="#3F3D56"/>
<path d="M199.459 191.505L194.702 186.46L189.157 191.685L193.915 196.731C194.609 197.463 195.566 197.891 196.575 197.921C197.584 197.951 198.563 197.58 199.3 196.89C200.033 196.195 200.46 195.239 200.49 194.23C200.52 193.222 200.149 192.242 199.459 191.505Z" fill="#00BFA6"/>
<path opacity="0.2" d="M200.485 193.954C200.396 194.863 199.981 195.71 199.316 196.338C198.58 197.028 197.6 197.398 196.591 197.369C195.582 197.339 194.626 196.911 193.931 196.179L189.442 191.417L189.157 191.685L193.915 196.731C194.609 197.463 195.566 197.891 196.575 197.921C197.584 197.951 198.563 197.58 199.3 196.89C199.697 196.514 200.008 196.058 200.213 195.551C200.417 195.045 200.51 194.5 200.485 193.954Z" fill="black"/>
<path d="M169.781 193.567C169.086 192.834 168.13 192.407 167.121 192.377C166.112 192.347 165.132 192.718 164.395 193.408C163.663 194.102 163.235 195.058 163.205 196.067C163.175 197.076 163.546 198.056 164.237 198.792L169.128 203.98L174.672 198.755L169.781 193.567Z" fill="#3F3D56"/>
<path d="M179.161 203.516L174.404 198.471L168.86 203.696L173.617 208.742C174.312 209.474 175.268 209.902 176.277 209.932C177.286 209.962 178.266 209.591 179.002 208.901C179.735 208.206 180.163 207.25 180.192 206.241C180.222 205.232 179.852 204.253 179.161 203.516Z" fill="#00BFA6"/>
<path opacity="0.2" d="M180.188 205.965C180.098 206.874 179.683 207.721 179.019 208.348C178.282 209.039 177.302 209.409 176.293 209.38C175.284 209.35 174.328 208.922 173.633 208.189L169.144 203.428L168.86 203.696L173.617 208.742C174.312 209.474 175.268 209.902 176.277 209.932C177.286 209.962 178.266 209.591 179.002 208.901C179.399 208.525 179.711 208.069 179.915 207.562C180.12 207.055 180.213 206.511 180.188 205.965Z" fill="black"/>
<path d="M190.078 204.749C189.384 204.017 188.428 203.589 187.419 203.559C186.41 203.53 185.43 203.9 184.693 204.59C183.961 205.285 183.533 206.241 183.503 207.25C183.473 208.259 183.844 209.238 184.534 209.975L189.425 215.163L194.97 209.937L190.078 204.749Z" fill="#3F3D56"/>
<path d="M199.459 214.699L194.702 209.653L189.157 214.878L193.915 219.924C194.609 220.657 195.566 221.085 196.575 221.114C197.584 221.144 198.563 220.773 199.3 220.083C200.033 219.389 200.46 218.433 200.49 217.424C200.52 216.415 200.149 215.435 199.459 214.699Z" fill="#00BFA6"/>
<path opacity="0.2" d="M200.485 217.147C200.396 218.057 199.981 218.904 199.316 219.531C198.58 220.221 197.6 220.592 196.591 220.562C195.582 220.532 194.626 220.104 193.931 219.372L189.442 214.611L189.157 214.878L193.915 219.924C194.609 220.657 195.566 221.085 196.575 221.114C197.584 221.144 198.563 220.773 199.3 220.083C199.697 219.708 200.008 219.251 200.213 218.745C200.417 218.238 200.51 217.693 200.485 217.147Z" fill="black"/>
<path d="M202.461 228.55C203.185 227.847 203.602 226.886 203.619 225.877C203.637 224.868 203.254 223.893 202.555 223.164C201.851 222.441 200.89 222.024 199.881 222.007C198.871 221.989 197.896 222.372 197.168 223.071L192.039 228.024L197.332 233.503L202.461 228.55Z" fill="#3F3D56"/>
<path d="M192.625 238.049L197.613 233.232L192.32 227.753L187.331 232.57C186.607 233.273 186.191 234.235 186.174 235.244C186.156 236.253 186.539 237.228 187.238 237.956C187.941 238.68 188.903 239.096 189.912 239.114C190.921 239.131 191.897 238.749 192.625 238.049Z" fill="#00BFA6"/>
<path opacity="0.2" d="M190.188 239.105C189.278 239.027 188.426 238.622 187.79 237.966C187.091 237.238 186.709 236.262 186.726 235.253C186.744 234.244 187.16 233.283 187.884 232.58L192.591 228.034L192.32 227.753L187.331 232.57C186.607 233.273 186.191 234.235 186.174 235.244C186.156 236.253 186.539 237.228 187.238 237.956C187.618 238.348 188.079 238.654 188.588 238.852C189.097 239.051 189.643 239.137 190.188 239.105Z" fill="black"/>
<path d="M175.121 216.54C175.845 215.836 176.262 214.875 176.279 213.866C176.297 212.857 175.914 211.882 175.215 211.154C174.512 210.43 173.55 210.014 172.541 209.996C171.532 209.979 170.556 210.361 169.828 211.06L164.699 216.013L169.992 221.493L175.121 216.54Z" fill="#3F3D56"/>
<path d="M165.285 226.039L170.273 221.221L164.98 215.742L159.992 220.559C159.268 221.263 158.851 222.224 158.834 223.233C158.816 224.242 159.199 225.217 159.898 225.945C160.602 226.669 161.563 227.085 162.572 227.103C163.582 227.12 164.557 226.738 165.285 226.039Z" fill="#00BFA6"/>
<path opacity="0.2" d="M162.849 227.094C161.938 227.016 161.086 226.611 160.451 225.955C159.751 225.227 159.369 224.252 159.386 223.242C159.404 222.233 159.82 221.272 160.544 220.569L165.252 216.023L164.98 215.742L159.992 220.559C159.268 221.263 158.851 222.224 158.834 223.233C158.816 224.242 159.199 225.217 159.898 225.945C160.278 226.337 160.739 226.643 161.248 226.842C161.757 227.04 162.303 227.126 162.849 227.094Z" fill="black"/>
<path d="M214.06 202.044C214.784 201.34 215.2 200.379 215.218 199.37C215.235 198.361 214.853 197.386 214.153 196.658C213.45 195.934 212.489 195.518 211.479 195.5C210.47 195.483 209.495 195.865 208.767 196.564L203.638 201.517L208.931 206.997L214.06 202.044Z" fill="#3F3D56"/>
<path d="M204.223 211.543L209.212 206.725L203.919 201.246L198.93 206.063C198.206 206.767 197.79 207.728 197.772 208.737C197.755 209.746 198.137 210.721 198.837 211.449C199.54 212.173 200.501 212.589 201.511 212.607C202.52 212.624 203.495 212.242 204.223 211.543Z" fill="#00BFA6"/>
<path opacity="0.2" d="M201.787 212.598C200.876 212.52 200.025 212.116 199.389 211.459C198.69 210.731 198.307 209.756 198.325 208.747C198.342 207.737 198.759 206.776 199.483 206.073L204.19 201.527L203.919 201.246L198.93 206.063C198.206 206.767 197.79 207.728 197.772 208.737C197.755 209.746 198.137 210.721 198.837 211.449C199.217 211.842 199.677 212.147 200.186 212.346C200.696 212.544 201.242 212.63 201.787 212.598Z" fill="black"/>
<path d="M205.405 232.084C204.711 231.352 203.755 230.924 202.746 230.894C201.737 230.865 200.757 231.235 200.02 231.926C199.288 232.62 198.86 233.576 198.83 234.585C198.8 235.594 199.171 236.573 199.861 237.31L204.752 242.498L210.297 237.272L205.405 232.084Z" fill="#3F3D56"/>
<path d="M214.786 242.034L210.029 236.988L204.484 242.214L209.242 247.259C209.936 247.992 210.892 248.42 211.901 248.449C212.911 248.479 213.89 248.109 214.627 247.418C215.359 246.724 215.787 245.768 215.817 244.759C215.847 243.75 215.476 242.77 214.786 242.034Z" fill="#00BFA6"/>
<path opacity="0.2" d="M215.812 244.482C215.723 245.392 215.308 246.239 214.643 246.866C213.907 247.556 212.927 247.927 211.918 247.897C210.909 247.867 209.953 247.44 209.258 246.707L204.769 241.946L204.484 242.214L209.242 247.259C209.936 247.992 210.892 248.42 211.901 248.449C212.911 248.479 213.89 248.109 214.627 247.418C215.024 247.043 215.335 246.586 215.54 246.08C215.744 245.573 215.837 245.028 215.812 244.482Z" fill="black"/>
<path d="M178.48 231.67C177.785 230.938 176.829 230.51 175.82 230.48C174.811 230.451 173.831 230.821 173.095 231.511C172.362 232.206 171.934 233.162 171.904 234.171C171.875 235.18 172.245 236.159 172.936 236.896L177.827 242.084L183.371 236.858L178.48 231.67Z" fill="#3F3D56"/>
<path d="M187.86 241.62L183.103 236.574L177.559 241.799L182.316 246.845C183.011 247.578 183.967 248.005 184.976 248.035C185.985 248.065 186.965 247.694 187.701 247.004C188.434 246.31 188.862 245.354 188.892 244.345C188.921 243.336 188.551 242.356 187.86 241.62Z" fill="#00BFA6"/>
<path opacity="0.2" d="M188.887 244.068C188.797 244.978 188.382 245.824 187.718 246.452C186.981 247.142 186.001 247.513 184.992 247.483C183.983 247.453 183.027 247.025 182.332 246.293L177.843 241.531L177.559 241.799L182.316 246.845C183.011 247.578 183.967 248.005 184.976 248.035C185.985 248.065 186.965 247.694 187.701 247.004C188.098 246.629 188.41 246.172 188.614 245.666C188.819 245.159 188.912 244.614 188.887 244.068Z" fill="black"/>
<path d="M186.059 218.005C186.059 219.272 185.622 220.499 184.821 221.48C184.02 222.461 182.905 223.136 181.664 223.389C180.938 223.535 180.191 223.535 179.466 223.389C178.225 223.135 177.11 222.461 176.309 221.48C175.508 220.499 175.071 219.272 175.071 218.005C175.071 216.739 175.508 215.512 176.309 214.531C177.11 213.55 178.225 212.876 179.466 212.622C180.191 212.476 180.938 212.476 181.664 212.622C182.905 212.875 184.02 213.55 184.821 214.531C185.622 215.512 186.059 216.739 186.059 218.005Z" fill="#00BFA6"/>
<path opacity="0.2" d="M181.664 212.622V223.389C180.938 223.535 180.191 223.535 179.466 223.389V212.622C180.191 212.476 180.938 212.476 181.664 212.622Z" fill="black"/>
<path d="M188.544 196.055C188.545 197.321 188.107 198.548 187.306 199.529C186.505 200.51 185.39 201.185 184.149 201.438C183.424 201.584 182.677 201.584 181.951 201.438C180.711 201.184 179.595 200.51 178.794 199.529C177.994 198.548 177.556 197.321 177.556 196.055C177.556 194.788 177.994 193.561 178.794 192.58C179.595 191.599 180.711 190.925 181.951 190.671C182.677 190.525 183.424 190.525 184.149 190.671C185.39 190.925 186.505 191.599 187.306 192.58C188.107 193.561 188.545 194.788 188.544 196.055Z" fill="#00BFA6"/>
<path opacity="0.2" d="M184.149 190.671V201.438C183.424 201.584 182.677 201.584 181.951 201.438V190.671C182.677 190.525 183.424 190.525 184.149 190.671Z" fill="black"/>
<path d="M188.544 227.531C188.545 228.798 188.107 230.025 187.306 231.006C186.505 231.987 185.39 232.661 184.149 232.915C183.424 233.061 182.677 233.061 181.951 232.915C180.711 232.661 179.595 231.987 178.794 231.006C177.994 230.025 177.556 228.798 177.556 227.531C177.556 226.265 177.994 225.038 178.794 224.057C179.595 223.076 180.711 222.402 181.951 222.148C182.677 222.002 183.424 222.002 184.149 222.148C185.39 222.401 186.505 223.076 187.306 224.056C188.107 225.037 188.545 226.265 188.544 227.531Z" fill="#00BFA6"/>
<path opacity="0.2" d="M184.149 222.148V232.915C183.424 233.061 182.677 233.061 181.951 232.915V222.148C182.677 222.002 183.424 222.002 184.149 222.148Z" fill="black"/>
<path d="M202.214 242.856C202.215 244.122 201.777 245.349 200.976 246.33C200.175 247.311 199.06 247.986 197.819 248.239C197.094 248.385 196.347 248.385 195.621 248.239C194.38 247.985 193.265 247.311 192.464 246.33C191.663 245.349 191.226 244.122 191.226 242.856C191.226 241.589 191.663 240.362 192.464 239.381C193.265 238.4 194.38 237.726 195.621 237.472C196.347 237.326 197.094 237.326 197.819 237.472C199.06 237.726 200.175 238.4 200.976 239.381C201.777 240.362 202.215 241.589 202.214 242.856Z" fill="#00BFA6"/>
<path opacity="0.2" d="M197.819 237.472V248.239C197.094 248.385 196.347 248.385 195.621 248.239V237.472C196.347 237.326 197.094 237.326 197.819 237.472Z" fill="black"/>
<path d="M214.29 214.661C215.202 215.539 215.783 216.706 215.933 217.964C216.084 219.221 215.795 220.492 215.116 221.561C214.719 222.184 214.2 222.722 213.591 223.143C212.548 223.86 211.288 224.195 210.026 224.091C208.764 223.987 207.576 223.45 206.664 222.571C205.753 221.692 205.172 220.525 205.022 219.268C204.871 218.011 205.159 216.74 205.838 215.671C206.236 215.047 206.754 214.509 207.363 214.089C208.407 213.371 209.666 213.036 210.929 213.141C212.191 213.245 213.378 213.782 214.29 214.661Z" fill="#00BFA6"/>
<path opacity="0.2" d="M207.363 214.089L215.116 221.561C214.719 222.184 214.2 222.722 213.591 223.143L205.838 215.671C206.236 215.047 206.754 214.509 207.363 214.089Z" fill="black"/>
<path d="M215.947 226.672C216.859 227.55 217.44 228.717 217.59 229.974C217.741 231.232 217.452 232.503 216.773 233.572C216.376 234.195 215.857 234.733 215.248 235.154C214.205 235.871 212.945 236.206 211.683 236.102C210.421 235.998 209.233 235.461 208.321 234.582C207.41 233.703 206.829 232.536 206.679 231.279C206.528 230.022 206.816 228.751 207.495 227.682C207.893 227.058 208.411 226.52 209.02 226.1C210.064 225.382 211.323 225.047 212.586 225.151C213.848 225.256 215.035 225.793 215.947 226.672Z" fill="#00BFA6"/>
<path opacity="0.2" d="M209.02 226.1L216.773 233.572C216.376 234.195 215.857 234.733 215.248 235.154L207.495 227.682C207.893 227.058 208.411 226.52 209.02 226.1Z" fill="black"/>
<path d="M166.653 229.571C167.565 230.449 168.145 231.616 168.296 232.874C168.446 234.131 168.158 235.402 167.479 236.471C167.081 237.095 166.563 237.632 165.954 238.053C164.91 238.77 163.651 239.105 162.388 239.001C161.126 238.897 159.939 238.36 159.027 237.481C158.115 236.602 157.535 235.436 157.384 234.178C157.234 232.921 157.522 231.65 158.2 230.581C158.598 229.957 159.117 229.419 159.726 228.999C160.769 228.281 162.029 227.946 163.291 228.051C164.553 228.155 165.741 228.692 166.653 229.571Z" fill="#00BFA6"/>
<path opacity="0.2" d="M159.726 228.999L167.479 236.471C167.081 237.095 166.563 237.632 165.954 238.053L158.201 230.581C158.598 229.957 159.117 229.419 159.726 228.999Z" fill="black"/>
<path opacity="0.2" d="M148.919 130.921H146.848V146.245H148.919V130.921Z" fill="black"/>
<path opacity="0.2" d="M160.932 130.921H158.861V146.245H160.932V130.921Z" fill="black"/>
<path opacity="0.2" d="M172.945 130.921H170.874V146.245H172.945V130.921Z" fill="black"/>
<path opacity="0.2" d="M184.958 130.921H182.887V146.245H184.958V130.921Z" fill="black"/>
<path opacity="0.2" d="M196.971 130.921H194.9V146.245H196.971V130.921Z" fill="black"/>
<path opacity="0.2" d="M208.984 130.921H206.913V146.245H208.984V130.921Z" fill="black"/>
<path opacity="0.2" d="M220.997 130.921H218.926V146.245H220.997V130.921Z" fill="black"/>
</svg>
