<svg width="47" height="47" viewBox="0 0 47 47" fill="none" xmlns="http://www.w3.org/2000/svg">
<path d="M23.5 47C10.521 47 0 36.479 0 23.5C0 10.521 10.521 0 23.5 0C36.479 0 47 10.521 47 23.5C47 36.479 36.479 47 23.5 47ZM23.5 42.3C28.4861 42.3 33.2679 40.3193 36.7936 36.7936C40.3193 33.2679 42.3 28.4861 42.3 23.5C42.3 18.5139 40.3193 13.7321 36.7936 10.2064C33.2679 6.68071 28.4861 4.7 23.5 4.7C18.5139 4.7 13.7321 6.68071 10.2064 10.2064C6.68071 13.7321 4.7 18.5139 4.7 23.5C4.7 28.4861 6.68071 33.2679 10.2064 36.7936C13.7321 40.3193 18.5139 42.3 23.5 42.3ZM14.1 25.85H32.9C32.9 28.343 31.9096 30.734 30.1468 32.4968C28.384 34.2596 25.993 35.25 23.5 35.25C21.007 35.25 18.616 34.2596 16.8532 32.4968C15.0904 30.734 14.1 28.343 14.1 25.85ZM14.1 21.15C13.1651 21.15 12.2685 20.7786 11.6074 20.1175C10.9464 19.4565 10.575 18.5599 10.575 17.625C10.575 16.6901 10.9464 15.7935 11.6074 15.1324C12.2685 14.4714 13.1651 14.1 14.1 14.1C15.0349 14.1 15.9315 14.4714 16.5926 15.1324C17.2536 15.7935 17.625 16.6901 17.625 17.625C17.625 18.5599 17.2536 19.4565 16.5926 20.1175C15.9315 20.7786 15.0349 21.15 14.1 21.15ZM32.9 21.15C31.9651 21.15 31.0685 20.7786 30.4074 20.1175C29.7464 19.4565 29.375 18.5599 29.375 17.625C29.375 16.6901 29.7464 15.7935 30.4074 15.1324C31.0685 14.4714 31.9651 14.1 32.9 14.1C33.8349 14.1 34.7315 14.4714 35.3925 15.1324C36.0536 15.7935 36.425 16.6901 36.425 17.625C36.425 18.5599 36.0536 19.4565 35.3925 20.1175C34.7315 20.7786 33.8349 21.15 32.9 21.15Z" fill="#00BFA6" fill-opacity="0.8"/>
<path d="M23.5 47C10.521 47 0 36.479 0 23.5C0 10.521 10.521 0 23.5 0C36.479 0 47 10.521 47 23.5C47 36.479 36.479 47 23.5 47ZM23.5 42.3C28.4861 42.3 33.2679 40.3193 36.7936 36.7936C40.3193 33.2679 42.3 28.4861 42.3 23.5C42.3 18.5139 40.3193 13.7321 36.7936 10.2064C33.2679 6.68071 28.4861 4.7 23.5 4.7C18.5139 4.7 13.7321 6.68071 10.2064 10.2064C6.68071 13.7321 4.7 18.5139 4.7 23.5C4.7 28.4861 6.68071 33.2679 10.2064 36.7936C13.7321 40.3193 18.5139 42.3 23.5 42.3ZM14.1 25.85H32.9C32.9 28.343 31.9096 30.734 30.1468 32.4968C28.384 34.2596 25.993 35.25 23.5 35.25C21.007 35.25 18.616 34.2596 16.8532 32.4968C15.0904 30.734 14.1 28.343 14.1 25.85ZM14.1 21.15C13.1651 21.15 12.2685 20.7786 11.6074 20.1175C10.9464 19.4565 10.575 18.5599 10.575 17.625C10.575 16.6901 10.9464 15.7935 11.6074 15.1324C12.2685 14.4714 13.1651 14.1 14.1 14.1C15.0349 14.1 15.9315 14.4714 16.5926 15.1324C17.2536 15.7935 17.625 16.6901 17.625 17.625C17.625 18.5599 17.2536 19.4565 16.5926 20.1175C15.9315 20.7786 15.0349 21.15 14.1 21.15ZM32.9 21.15C31.9651 21.15 31.0685 20.7786 30.4074 20.1175C29.7464 19.4565 29.375 18.5599 29.375 17.625C29.375 16.6901 29.7464 15.7935 30.4074 15.1324C31.0685 14.4714 31.9651 14.1 32.9 14.1C33.8349 14.1 34.7315 14.4714 35.3925 15.1324C36.0536 15.7935 36.425 16.6901 36.425 17.625C36.425 18.5599 36.0536 19.4565 35.3925 20.1175C34.7315 20.7786 33.8349 21.15 32.9 21.15Z" stroke="black"/>
</svg>
